<mxfile host="65bd71144e">
    <diagram id="rtMcYx4FOQoOuq_V5lhO" name="Page-1">
        <mxGraphModel dx="2032" dy="267" grid="1" gridSize="10" guides="1" tooltips="1" connect="1" arrows="1" fold="1" page="1" pageScale="1" pageWidth="827" pageHeight="1169" math="0" shadow="0">
            <root>
                <mxCell id="0"/>
                <mxCell id="1" parent="0"/>
                <mxCell id="4" style="edgeStyle=orthogonalEdgeStyle;rounded=0;orthogonalLoop=1;jettySize=auto;html=1;exitX=0.5;exitY=1;exitDx=0;exitDy=0;endArrow=none;endFill=0;" parent="1" source="2" edge="1">
                    <mxGeometry relative="1" as="geometry">
                        <mxPoint x="130" y="508.5" as="targetPoint"/>
                    </mxGeometry>
                </mxCell>
                <mxCell id="5" style="edgeStyle=orthogonalEdgeStyle;rounded=0;orthogonalLoop=1;jettySize=auto;html=1;exitX=0.5;exitY=0;exitDx=0;exitDy=0;endArrow=none;endFill=0;" parent="1" source="2" edge="1">
                    <mxGeometry relative="1" as="geometry">
                        <mxPoint x="130.0344827586207" y="288.4999999999999" as="targetPoint"/>
                    </mxGeometry>
                </mxCell>
                <mxCell id="2" value="" style="ellipse;whiteSpace=wrap;html=1;aspect=fixed;" parent="1" vertex="1">
                    <mxGeometry x="90" y="368.5" width="80" height="80" as="geometry"/>
                </mxCell>
                <mxCell id="9" value="" style="group" parent="1" vertex="1" connectable="0">
                    <mxGeometry x="100" y="508.5" width="450" height="20" as="geometry"/>
                </mxCell>
                <mxCell id="6" value="" style="endArrow=none;html=1;" parent="9" edge="1">
                    <mxGeometry width="50" height="50" relative="1" as="geometry">
                        <mxPoint as="sourcePoint"/>
                        <mxPoint x="60" as="targetPoint"/>
                    </mxGeometry>
                </mxCell>
                <mxCell id="7" value="" style="endArrow=none;html=1;" parent="9" edge="1">
                    <mxGeometry width="50" height="50" relative="1" as="geometry">
                        <mxPoint x="20.000000000000114" y="19.999999999999886" as="sourcePoint"/>
                        <mxPoint x="40" y="20" as="targetPoint"/>
                    </mxGeometry>
                </mxCell>
                <mxCell id="8" value="" style="endArrow=none;html=1;" parent="9" edge="1">
                    <mxGeometry width="50" height="50" relative="1" as="geometry">
                        <mxPoint x="10" y="10" as="sourcePoint"/>
                        <mxPoint x="50" y="10" as="targetPoint"/>
                    </mxGeometry>
                </mxCell>
                <mxCell id="80" value="" style="group" parent="9" vertex="1" connectable="0">
                    <mxGeometry x="390" width="60" height="20" as="geometry"/>
                </mxCell>
                <mxCell id="81" value="" style="endArrow=none;html=1;" parent="80" edge="1">
                    <mxGeometry width="50" height="50" relative="1" as="geometry">
                        <mxPoint as="sourcePoint"/>
                        <mxPoint x="60" as="targetPoint"/>
                    </mxGeometry>
                </mxCell>
                <mxCell id="82" value="" style="endArrow=none;html=1;" parent="80" edge="1">
                    <mxGeometry width="50" height="50" relative="1" as="geometry">
                        <mxPoint x="20.000000000000114" y="19.999999999999886" as="sourcePoint"/>
                        <mxPoint x="40" y="20" as="targetPoint"/>
                    </mxGeometry>
                </mxCell>
                <mxCell id="83" value="" style="endArrow=none;html=1;" parent="80" edge="1">
                    <mxGeometry width="50" height="50" relative="1" as="geometry">
                        <mxPoint x="10" y="10" as="sourcePoint"/>
                        <mxPoint x="50" y="10" as="targetPoint"/>
                    </mxGeometry>
                </mxCell>
                <mxCell id="10" value="&lt;font style=&quot;font-size: 30px&quot;&gt;V&lt;/font&gt;" style="text;html=1;strokeColor=none;fillColor=none;align=center;verticalAlign=middle;whiteSpace=wrap;rounded=0;" parent="1" vertex="1">
                    <mxGeometry x="110" y="388.5" width="40" height="40" as="geometry"/>
                </mxCell>
                <mxCell id="11" value="" style="pointerEvents=1;verticalLabelPosition=bottom;shadow=0;dashed=0;align=center;html=1;verticalAlign=top;shape=mxgraph.electrical.resistors.resistor_2;" parent="1" vertex="1">
                    <mxGeometry x="130" y="278.5" width="200" height="20" as="geometry"/>
                </mxCell>
                <mxCell id="52" value="" style="pointerEvents=1;verticalLabelPosition=bottom;shadow=0;dashed=0;align=center;html=1;verticalAlign=top;shape=mxgraph.electrical.inductors.inductor_3;" parent="1" vertex="1">
                    <mxGeometry x="330" y="278.5" width="190" height="10" as="geometry"/>
                </mxCell>
                <mxCell id="57" value="" style="group" parent="1" vertex="1" connectable="0">
                    <mxGeometry x="-280" y="368.5" width="102.99038105676664" height="240" as="geometry"/>
                </mxCell>
                <mxCell id="50" style="edgeStyle=orthogonalEdgeStyle;rounded=0;orthogonalLoop=1;jettySize=auto;html=1;exitX=0.5;exitY=1;exitDx=0;exitDy=0;endArrow=none;endFill=0;" parent="57" source="12" edge="1">
                    <mxGeometry relative="1" as="geometry">
                        <mxPoint x="50" y="220" as="targetPoint"/>
                    </mxGeometry>
                </mxCell>
                <mxCell id="51" style="edgeStyle=orthogonalEdgeStyle;rounded=0;orthogonalLoop=1;jettySize=auto;html=1;exitX=0.5;exitY=0;exitDx=0;exitDy=0;endArrow=none;endFill=0;" parent="57" source="12" edge="1">
                    <mxGeometry relative="1" as="geometry">
                        <mxPoint x="50" as="targetPoint"/>
                    </mxGeometry>
                </mxCell>
                <mxCell id="12" value="" style="ellipse;whiteSpace=wrap;html=1;aspect=fixed;" parent="57" vertex="1">
                    <mxGeometry x="10" y="80" width="80" height="80" as="geometry"/>
                </mxCell>
                <mxCell id="32" value="" style="group" parent="57" vertex="1" connectable="0">
                    <mxGeometry y="110" width="20" height="20" as="geometry"/>
                </mxCell>
                <mxCell id="25" value="" style="endArrow=none;html=1;" parent="32" edge="1">
                    <mxGeometry x="560" y="360" width="50" height="50" as="geometry">
                        <mxPoint y="20" as="sourcePoint"/>
                        <mxPoint x="20" as="targetPoint"/>
                    </mxGeometry>
                </mxCell>
                <mxCell id="26" value="" style="endArrow=none;html=1;" parent="32" edge="1">
                    <mxGeometry x="560" y="360" width="50" height="50" as="geometry">
                        <mxPoint x="20" y="20" as="sourcePoint"/>
                        <mxPoint as="targetPoint"/>
                    </mxGeometry>
                </mxCell>
                <mxCell id="33" value="" style="group;rotation=35;" parent="57" vertex="1" connectable="0">
                    <mxGeometry x="69" y="137" width="20" height="20" as="geometry"/>
                </mxCell>
                <mxCell id="34" value="" style="endArrow=none;html=1;" parent="33" edge="1">
                    <mxGeometry x="241" y="622" width="50" height="50" as="geometry">
                        <mxPoint x="-4" y="12" as="sourcePoint"/>
                        <mxPoint x="24" y="8" as="targetPoint"/>
                    </mxGeometry>
                </mxCell>
                <mxCell id="35" value="" style="endArrow=none;html=1;" parent="33" edge="1">
                    <mxGeometry x="241" y="622" width="50" height="50" as="geometry">
                        <mxPoint x="12" y="24" as="sourcePoint"/>
                        <mxPoint x="8" y="-4" as="targetPoint"/>
                    </mxGeometry>
                </mxCell>
                <mxCell id="46" value="" style="group;rotation=-30;" parent="57" vertex="1" connectable="0">
                    <mxGeometry x="70" y="90" width="30" height="20" as="geometry"/>
                </mxCell>
                <mxCell id="47" value="" style="endArrow=none;html=1;" parent="46" edge="1">
                    <mxGeometry x="675" y="22" width="50" height="50" as="geometry">
                        <mxPoint x="11" y="24" as="sourcePoint"/>
                        <mxPoint x="19" y="-4" as="targetPoint"/>
                    </mxGeometry>
                </mxCell>
                <mxCell id="48" value="" style="endArrow=none;html=1;" parent="46" edge="1">
                    <mxGeometry x="675" y="22" width="50" height="50" as="geometry">
                        <mxPoint x="29" y="14" as="sourcePoint"/>
                        <mxPoint x="1" y="6" as="targetPoint"/>
                    </mxGeometry>
                </mxCell>
                <mxCell id="49" value="" style="endArrow=none;html=1;" parent="46" edge="1">
                    <mxGeometry width="50" height="50" relative="1" as="geometry">
                        <mxPoint x="2" y="17" as="sourcePoint"/>
                        <mxPoint x="28" y="2" as="targetPoint"/>
                    </mxGeometry>
                </mxCell>
                <mxCell id="53" value="" style="group" parent="57" vertex="1" connectable="0">
                    <mxGeometry x="20" y="220" width="60" height="20" as="geometry"/>
                </mxCell>
                <mxCell id="54" value="" style="endArrow=none;html=1;" parent="53" edge="1">
                    <mxGeometry width="50" height="50" relative="1" as="geometry">
                        <mxPoint as="sourcePoint"/>
                        <mxPoint x="60" as="targetPoint"/>
                    </mxGeometry>
                </mxCell>
                <mxCell id="55" value="" style="endArrow=none;html=1;" parent="53" edge="1">
                    <mxGeometry width="50" height="50" relative="1" as="geometry">
                        <mxPoint x="20.000000000000114" y="19.999999999999886" as="sourcePoint"/>
                        <mxPoint x="40" y="20" as="targetPoint"/>
                    </mxGeometry>
                </mxCell>
                <mxCell id="56" value="" style="endArrow=none;html=1;" parent="53" edge="1">
                    <mxGeometry width="50" height="50" relative="1" as="geometry">
                        <mxPoint x="10" y="10" as="sourcePoint"/>
                        <mxPoint x="50" y="10" as="targetPoint"/>
                    </mxGeometry>
                </mxCell>
                <mxCell id="74" value="" style="group" parent="1" vertex="1" connectable="0">
                    <mxGeometry x="-260" y="140" width="60" height="20" as="geometry"/>
                </mxCell>
                <mxCell id="75" value="" style="endArrow=none;html=1;" parent="74" edge="1">
                    <mxGeometry width="50" height="50" relative="1" as="geometry">
                        <mxPoint as="sourcePoint"/>
                        <mxPoint x="60" as="targetPoint"/>
                    </mxGeometry>
                </mxCell>
                <mxCell id="76" value="" style="endArrow=none;html=1;" parent="74" edge="1">
                    <mxGeometry width="50" height="50" relative="1" as="geometry">
                        <mxPoint x="20.000000000000114" y="19.999999999999886" as="sourcePoint"/>
                        <mxPoint x="40" y="20" as="targetPoint"/>
                    </mxGeometry>
                </mxCell>
                <mxCell id="77" value="" style="endArrow=none;html=1;" parent="74" edge="1">
                    <mxGeometry width="50" height="50" relative="1" as="geometry">
                        <mxPoint x="10" y="10" as="sourcePoint"/>
                        <mxPoint x="50" y="10" as="targetPoint"/>
                    </mxGeometry>
                </mxCell>
                <mxCell id="78" value="" style="group;rotation=-90;" parent="1" vertex="1" connectable="0">
                    <mxGeometry x="589" y="167.5" width="113.99038105676664" height="1162.5" as="geometry"/>
                </mxCell>
                <mxCell id="61" style="edgeStyle=orthogonalEdgeStyle;rounded=0;orthogonalLoop=1;jettySize=auto;html=1;exitX=0.5;exitY=1;exitDx=0;exitDy=0;endArrow=none;endFill=0;" parent="78" source="63" edge="1">
                    <mxGeometry x="-69" y="171" as="geometry">
                        <mxPoint x="171" y="121" as="targetPoint"/>
                    </mxGeometry>
                </mxCell>
                <mxCell id="62" style="edgeStyle=orthogonalEdgeStyle;rounded=0;orthogonalLoop=1;jettySize=auto;html=1;exitX=0.5;exitY=0;exitDx=0;exitDy=0;endArrow=none;endFill=0;" parent="78" source="63" edge="1">
                    <mxGeometry x="-69" y="171" as="geometry">
                        <mxPoint x="-69" y="121" as="targetPoint"/>
                    </mxGeometry>
                </mxCell>
                <mxCell id="63" value="" style="ellipse;whiteSpace=wrap;html=1;aspect=fixed;rotation=-90;" parent="78" vertex="1">
                    <mxGeometry x="11" y="81" width="80" height="80" as="geometry"/>
                </mxCell>
                <mxCell id="64" value="" style="group;rotation=-90;" parent="78" vertex="1" connectable="0">
                    <mxGeometry x="41" y="151" width="20" height="20" as="geometry"/>
                </mxCell>
                <mxCell id="65" value="" style="endArrow=none;html=1;" parent="64" edge="1">
                    <mxGeometry x="360" y="-590" width="50" height="50" as="geometry">
                        <mxPoint x="20" y="20" as="sourcePoint"/>
                        <mxPoint as="targetPoint"/>
                    </mxGeometry>
                </mxCell>
                <mxCell id="66" value="" style="endArrow=none;html=1;" parent="64" edge="1">
                    <mxGeometry x="360" y="-590" width="50" height="50" as="geometry">
                        <mxPoint x="20" as="sourcePoint"/>
                        <mxPoint y="20" as="targetPoint"/>
                    </mxGeometry>
                </mxCell>
                <mxCell id="67" value="" style="group;rotation=-55;" parent="78" vertex="1" connectable="0">
                    <mxGeometry x="68" y="82" width="20" height="20" as="geometry"/>
                </mxCell>
                <mxCell id="68" value="" style="endArrow=none;html=1;" parent="67" edge="1">
                    <mxGeometry x="622" y="-271" width="50" height="50" as="geometry">
                        <mxPoint x="12" y="24" as="sourcePoint"/>
                        <mxPoint x="8" y="-4" as="targetPoint"/>
                    </mxGeometry>
                </mxCell>
                <mxCell id="69" value="" style="endArrow=none;html=1;" parent="67" edge="1">
                    <mxGeometry x="622" y="-271" width="50" height="50" as="geometry">
                        <mxPoint x="24" y="8" as="sourcePoint"/>
                        <mxPoint x="-4" y="12" as="targetPoint"/>
                    </mxGeometry>
                </mxCell>
                <mxCell id="70" value="" style="group;rotation=-120;" parent="78" vertex="1" connectable="0">
                    <mxGeometry x="16" y="76" width="30" height="20" as="geometry"/>
                </mxCell>
                <mxCell id="71" value="" style="endArrow=none;html=1;" parent="70" edge="1">
                    <mxGeometry x="27" y="-700" width="50" height="50" as="geometry">
                        <mxPoint x="29" y="14" as="sourcePoint"/>
                        <mxPoint x="1" y="6" as="targetPoint"/>
                    </mxGeometry>
                </mxCell>
                <mxCell id="72" value="" style="endArrow=none;html=1;" parent="70" edge="1">
                    <mxGeometry x="27" y="-700" width="50" height="50" as="geometry">
                        <mxPoint x="19" y="-4" as="sourcePoint"/>
                        <mxPoint x="11" y="24" as="targetPoint"/>
                    </mxGeometry>
                </mxCell>
                <mxCell id="73" value="" style="endArrow=none;html=1;" parent="70" edge="1">
                    <mxGeometry width="50" height="50" relative="1" as="geometry">
                        <mxPoint x="22" y="23" as="sourcePoint"/>
                        <mxPoint x="7" y="-3" as="targetPoint"/>
                    </mxGeometry>
                </mxCell>
                <mxCell id="84" style="edgeStyle=orthogonalEdgeStyle;rounded=0;orthogonalLoop=1;jettySize=auto;html=1;exitX=1;exitY=1;exitDx=0;exitDy=0;exitPerimeter=0;endArrow=none;endFill=0;" parent="1" source="79" edge="1">
                    <mxGeometry relative="1" as="geometry">
                        <mxPoint x="520" y="508.5" as="targetPoint"/>
                    </mxGeometry>
                </mxCell>
                <mxCell id="85" style="edgeStyle=orthogonalEdgeStyle;rounded=0;orthogonalLoop=1;jettySize=auto;html=1;exitX=0;exitY=1;exitDx=0;exitDy=0;exitPerimeter=0;entryX=0;entryY=1;entryDx=0;entryDy=0;entryPerimeter=0;endArrow=none;endFill=0;" parent="1" edge="1">
                    <mxGeometry relative="1" as="geometry">
                        <mxPoint x="520" y="308.4999999999999" as="sourcePoint"/>
                        <mxPoint x="520" y="289.5" as="targetPoint"/>
                    </mxGeometry>
                </mxCell>
                <mxCell id="79" value="" style="pointerEvents=1;verticalLabelPosition=bottom;shadow=0;dashed=0;align=center;html=1;verticalAlign=top;shape=mxgraph.electrical.inductors.inductor_3;rotation=90;" parent="1" vertex="1">
                    <mxGeometry x="430" y="397.5" width="190" height="10" as="geometry"/>
                </mxCell>
                <mxCell id="86" value="" style="pointerEvents=1;verticalLabelPosition=bottom;shadow=0;dashed=0;align=center;html=1;verticalAlign=top;shape=mxgraph.electrical.inductors.inductor_3;" parent="1" vertex="1">
                    <mxGeometry x="760" y="278.5" width="190" height="10" as="geometry"/>
                </mxCell>
                <mxCell id="87" value="" style="pointerEvents=1;verticalLabelPosition=bottom;shadow=0;dashed=0;align=center;html=1;verticalAlign=top;shape=mxgraph.electrical.inductors.inductor_3;" parent="1" vertex="1">
                    <mxGeometry x="951" y="278.5" width="190" height="10" as="geometry"/>
                </mxCell>
                <mxCell id="88" value="" style="group" parent="1" vertex="1" connectable="0">
                    <mxGeometry x="1091" y="288.5" width="102.99038105676664" height="240" as="geometry"/>
                </mxCell>
                <mxCell id="89" style="edgeStyle=orthogonalEdgeStyle;rounded=0;orthogonalLoop=1;jettySize=auto;html=1;exitX=0.5;exitY=1;exitDx=0;exitDy=0;endArrow=none;endFill=0;" parent="88" source="91" edge="1">
                    <mxGeometry relative="1" as="geometry">
                        <mxPoint x="50" y="220" as="targetPoint"/>
                    </mxGeometry>
                </mxCell>
                <mxCell id="90" style="edgeStyle=orthogonalEdgeStyle;rounded=0;orthogonalLoop=1;jettySize=auto;html=1;exitX=0.5;exitY=0;exitDx=0;exitDy=0;endArrow=none;endFill=0;" parent="88" source="91" edge="1">
                    <mxGeometry relative="1" as="geometry">
                        <mxPoint x="50" as="targetPoint"/>
                    </mxGeometry>
                </mxCell>
                <mxCell id="91" value="" style="ellipse;whiteSpace=wrap;html=1;aspect=fixed;" parent="88" vertex="1">
                    <mxGeometry x="10" y="80" width="80" height="80" as="geometry"/>
                </mxCell>
                <mxCell id="92" value="" style="group" parent="88" vertex="1" connectable="0">
                    <mxGeometry y="110" width="20" height="20" as="geometry"/>
                </mxCell>
                <mxCell id="93" value="" style="endArrow=none;html=1;" parent="92" edge="1">
                    <mxGeometry x="560" y="360" width="50" height="50" as="geometry">
                        <mxPoint y="20" as="sourcePoint"/>
                        <mxPoint x="20" as="targetPoint"/>
                    </mxGeometry>
                </mxCell>
                <mxCell id="94" value="" style="endArrow=none;html=1;" parent="92" edge="1">
                    <mxGeometry x="560" y="360" width="50" height="50" as="geometry">
                        <mxPoint x="20" y="20" as="sourcePoint"/>
                        <mxPoint as="targetPoint"/>
                    </mxGeometry>
                </mxCell>
                <mxCell id="95" value="" style="group;rotation=35;" parent="88" vertex="1" connectable="0">
                    <mxGeometry x="69" y="137" width="20" height="20" as="geometry"/>
                </mxCell>
                <mxCell id="96" value="" style="endArrow=none;html=1;" parent="95" edge="1">
                    <mxGeometry x="241" y="622" width="50" height="50" as="geometry">
                        <mxPoint x="-4" y="12" as="sourcePoint"/>
                        <mxPoint x="24" y="8" as="targetPoint"/>
                    </mxGeometry>
                </mxCell>
                <mxCell id="97" value="" style="endArrow=none;html=1;" parent="95" edge="1">
                    <mxGeometry x="241" y="622" width="50" height="50" as="geometry">
                        <mxPoint x="12" y="24" as="sourcePoint"/>
                        <mxPoint x="8" y="-4" as="targetPoint"/>
                    </mxGeometry>
                </mxCell>
                <mxCell id="98" value="" style="group;rotation=-30;" parent="88" vertex="1" connectable="0">
                    <mxGeometry x="70" y="90" width="30" height="20" as="geometry"/>
                </mxCell>
                <mxCell id="99" value="" style="endArrow=none;html=1;" parent="98" edge="1">
                    <mxGeometry x="675" y="22" width="50" height="50" as="geometry">
                        <mxPoint x="11" y="24" as="sourcePoint"/>
                        <mxPoint x="19" y="-4" as="targetPoint"/>
                    </mxGeometry>
                </mxCell>
                <mxCell id="100" value="" style="endArrow=none;html=1;" parent="98" edge="1">
                    <mxGeometry x="675" y="22" width="50" height="50" as="geometry">
                        <mxPoint x="29" y="14" as="sourcePoint"/>
                        <mxPoint x="1" y="6" as="targetPoint"/>
                    </mxGeometry>
                </mxCell>
                <mxCell id="101" value="" style="endArrow=none;html=1;" parent="98" edge="1">
                    <mxGeometry width="50" height="50" relative="1" as="geometry">
                        <mxPoint x="2" y="17" as="sourcePoint"/>
                        <mxPoint x="28" y="2" as="targetPoint"/>
                    </mxGeometry>
                </mxCell>
                <mxCell id="102" value="" style="group" parent="88" vertex="1" connectable="0">
                    <mxGeometry x="20" y="220" width="60" height="20" as="geometry"/>
                </mxCell>
                <mxCell id="103" value="" style="endArrow=none;html=1;" parent="102" edge="1">
                    <mxGeometry width="50" height="50" relative="1" as="geometry">
                        <mxPoint as="sourcePoint"/>
                        <mxPoint x="60" as="targetPoint"/>
                    </mxGeometry>
                </mxCell>
                <mxCell id="104" value="" style="endArrow=none;html=1;" parent="102" edge="1">
                    <mxGeometry width="50" height="50" relative="1" as="geometry">
                        <mxPoint x="20.000000000000114" y="19.999999999999886" as="sourcePoint"/>
                        <mxPoint x="40" y="20" as="targetPoint"/>
                    </mxGeometry>
                </mxCell>
                <mxCell id="105" value="" style="endArrow=none;html=1;" parent="102" edge="1">
                    <mxGeometry width="50" height="50" relative="1" as="geometry">
                        <mxPoint x="10" y="10" as="sourcePoint"/>
                        <mxPoint x="50" y="10" as="targetPoint"/>
                    </mxGeometry>
                </mxCell>
                <mxCell id="106" value="" style="pointerEvents=1;verticalLabelPosition=bottom;shadow=0;dashed=0;align=center;html=1;verticalAlign=top;shape=mxgraph.electrical.resistors.resistor_2;rotation=90;" parent="1" vertex="1">
                    <mxGeometry x="860" y="177.5" width="200" height="20" as="geometry"/>
                </mxCell>
                <mxCell id="107" value="" style="triangle;whiteSpace=wrap;html=1;rotation=-90;" parent="1" vertex="1">
                    <mxGeometry x="937.5" y="30" width="45" height="70" as="geometry"/>
                </mxCell>
                <mxCell id="150" value="" style="group" parent="1" vertex="1" connectable="0">
                    <mxGeometry x="17.999999999999993" y="752.5" width="815.9903810567666" height="486" as="geometry"/>
                </mxCell>
                <mxCell id="108" value="" style="pointerEvents=1;verticalLabelPosition=bottom;shadow=0;dashed=0;align=center;html=1;verticalAlign=top;shape=mxgraph.electrical.inductors.inductor_3;" parent="150" vertex="1">
                    <mxGeometry x="382" y="236" width="190" height="10" as="geometry"/>
                </mxCell>
                <mxCell id="109" value="" style="pointerEvents=1;verticalLabelPosition=bottom;shadow=0;dashed=0;align=center;html=1;verticalAlign=top;shape=mxgraph.electrical.inductors.inductor_3;" parent="150" vertex="1">
                    <mxGeometry x="573" y="236" width="190" height="10" as="geometry"/>
                </mxCell>
                <mxCell id="110" value="" style="group" parent="150" vertex="1" connectable="0">
                    <mxGeometry x="713" y="246" width="102.99038105676664" height="240" as="geometry"/>
                </mxCell>
                <mxCell id="111" style="edgeStyle=orthogonalEdgeStyle;rounded=0;orthogonalLoop=1;jettySize=auto;html=1;exitX=0.5;exitY=1;exitDx=0;exitDy=0;endArrow=none;endFill=0;" parent="110" source="113" edge="1">
                    <mxGeometry relative="1" as="geometry">
                        <mxPoint x="50" y="220" as="targetPoint"/>
                    </mxGeometry>
                </mxCell>
                <mxCell id="112" style="edgeStyle=orthogonalEdgeStyle;rounded=0;orthogonalLoop=1;jettySize=auto;html=1;exitX=0.5;exitY=0;exitDx=0;exitDy=0;endArrow=none;endFill=0;" parent="110" source="113" edge="1">
                    <mxGeometry relative="1" as="geometry">
                        <mxPoint x="50" as="targetPoint"/>
                    </mxGeometry>
                </mxCell>
                <mxCell id="113" value="" style="ellipse;whiteSpace=wrap;html=1;aspect=fixed;" parent="110" vertex="1">
                    <mxGeometry x="10" y="80" width="80" height="80" as="geometry"/>
                </mxCell>
                <mxCell id="114" value="" style="group" parent="110" vertex="1" connectable="0">
                    <mxGeometry y="110" width="20" height="20" as="geometry"/>
                </mxCell>
                <mxCell id="115" value="" style="endArrow=none;html=1;" parent="114" edge="1">
                    <mxGeometry x="560" y="360" width="50" height="50" as="geometry">
                        <mxPoint y="20" as="sourcePoint"/>
                        <mxPoint x="20" as="targetPoint"/>
                    </mxGeometry>
                </mxCell>
                <mxCell id="116" value="" style="endArrow=none;html=1;" parent="114" edge="1">
                    <mxGeometry x="560" y="360" width="50" height="50" as="geometry">
                        <mxPoint x="20" y="20" as="sourcePoint"/>
                        <mxPoint as="targetPoint"/>
                    </mxGeometry>
                </mxCell>
                <mxCell id="117" value="" style="group;rotation=35;" parent="110" vertex="1" connectable="0">
                    <mxGeometry x="69" y="137" width="20" height="20" as="geometry"/>
                </mxCell>
                <mxCell id="118" value="" style="endArrow=none;html=1;" parent="117" edge="1">
                    <mxGeometry x="241" y="622" width="50" height="50" as="geometry">
                        <mxPoint x="-4" y="12" as="sourcePoint"/>
                        <mxPoint x="24" y="8" as="targetPoint"/>
                    </mxGeometry>
                </mxCell>
                <mxCell id="119" value="" style="endArrow=none;html=1;" parent="117" edge="1">
                    <mxGeometry x="241" y="622" width="50" height="50" as="geometry">
                        <mxPoint x="12" y="24" as="sourcePoint"/>
                        <mxPoint x="8" y="-4" as="targetPoint"/>
                    </mxGeometry>
                </mxCell>
                <mxCell id="120" value="" style="group;rotation=-30;" parent="110" vertex="1" connectable="0">
                    <mxGeometry x="70" y="90" width="30" height="20" as="geometry"/>
                </mxCell>
                <mxCell id="121" value="" style="endArrow=none;html=1;" parent="120" edge="1">
                    <mxGeometry x="675" y="22" width="50" height="50" as="geometry">
                        <mxPoint x="11" y="24" as="sourcePoint"/>
                        <mxPoint x="19" y="-4" as="targetPoint"/>
                    </mxGeometry>
                </mxCell>
                <mxCell id="122" value="" style="endArrow=none;html=1;" parent="120" edge="1">
                    <mxGeometry x="675" y="22" width="50" height="50" as="geometry">
                        <mxPoint x="29" y="14" as="sourcePoint"/>
                        <mxPoint x="1" y="6" as="targetPoint"/>
                    </mxGeometry>
                </mxCell>
                <mxCell id="123" value="" style="endArrow=none;html=1;" parent="120" edge="1">
                    <mxGeometry width="50" height="50" relative="1" as="geometry">
                        <mxPoint x="2" y="17" as="sourcePoint"/>
                        <mxPoint x="28" y="2" as="targetPoint"/>
                    </mxGeometry>
                </mxCell>
                <mxCell id="124" value="" style="group" parent="110" vertex="1" connectable="0">
                    <mxGeometry x="20" y="220" width="60" height="20" as="geometry"/>
                </mxCell>
                <mxCell id="125" value="" style="endArrow=none;html=1;" parent="124" edge="1">
                    <mxGeometry width="50" height="50" relative="1" as="geometry">
                        <mxPoint as="sourcePoint"/>
                        <mxPoint x="60" as="targetPoint"/>
                    </mxGeometry>
                </mxCell>
                <mxCell id="126" value="" style="endArrow=none;html=1;" parent="124" edge="1">
                    <mxGeometry width="50" height="50" relative="1" as="geometry">
                        <mxPoint x="20.000000000000114" y="19.999999999999886" as="sourcePoint"/>
                        <mxPoint x="40" y="20" as="targetPoint"/>
                    </mxGeometry>
                </mxCell>
                <mxCell id="127" value="" style="endArrow=none;html=1;" parent="124" edge="1">
                    <mxGeometry width="50" height="50" relative="1" as="geometry">
                        <mxPoint x="10" y="10" as="sourcePoint"/>
                        <mxPoint x="50" y="10" as="targetPoint"/>
                    </mxGeometry>
                </mxCell>
                <mxCell id="128" value="" style="pointerEvents=1;verticalLabelPosition=bottom;shadow=0;dashed=0;align=center;html=1;verticalAlign=top;shape=mxgraph.electrical.resistors.resistor_2;rotation=90;" parent="150" vertex="1">
                    <mxGeometry x="482" y="135" width="200" height="20" as="geometry"/>
                </mxCell>
                <mxCell id="129" value="" style="triangle;whiteSpace=wrap;html=1;rotation=-90;" parent="150" vertex="1">
                    <mxGeometry x="559.5" y="-12.5" width="45" height="70" as="geometry"/>
                </mxCell>
                <mxCell id="130" value="" style="pointerEvents=1;verticalLabelPosition=bottom;shadow=0;dashed=0;align=center;html=1;verticalAlign=top;shape=mxgraph.electrical.inductors.inductor_3;" parent="150" vertex="1">
                    <mxGeometry y="236" width="190" height="10" as="geometry"/>
                </mxCell>
                <mxCell id="131" value="" style="pointerEvents=1;verticalLabelPosition=bottom;shadow=0;dashed=0;align=center;html=1;verticalAlign=top;shape=mxgraph.electrical.inductors.inductor_3;" parent="150" vertex="1">
                    <mxGeometry x="191" y="236" width="190" height="10" as="geometry"/>
                </mxCell>
                <mxCell id="132" value="" style="group" parent="150" vertex="1" connectable="0">
                    <mxGeometry x="331" y="246" width="102.99038105676664" height="240" as="geometry"/>
                </mxCell>
                <mxCell id="133" style="edgeStyle=orthogonalEdgeStyle;rounded=0;orthogonalLoop=1;jettySize=auto;html=1;exitX=0.5;exitY=1;exitDx=0;exitDy=0;endArrow=none;endFill=0;" parent="132" source="135" edge="1">
                    <mxGeometry relative="1" as="geometry">
                        <mxPoint x="50" y="220" as="targetPoint"/>
                    </mxGeometry>
                </mxCell>
                <mxCell id="134" style="edgeStyle=orthogonalEdgeStyle;rounded=0;orthogonalLoop=1;jettySize=auto;html=1;exitX=0.5;exitY=0;exitDx=0;exitDy=0;endArrow=none;endFill=0;" parent="132" source="135" edge="1">
                    <mxGeometry relative="1" as="geometry">
                        <mxPoint x="50" as="targetPoint"/>
                    </mxGeometry>
                </mxCell>
                <mxCell id="135" value="" style="ellipse;whiteSpace=wrap;html=1;aspect=fixed;" parent="132" vertex="1">
                    <mxGeometry x="10" y="80" width="80" height="80" as="geometry"/>
                </mxCell>
                <mxCell id="136" value="" style="group" parent="132" vertex="1" connectable="0">
                    <mxGeometry y="110" width="20" height="20" as="geometry"/>
                </mxCell>
                <mxCell id="137" value="" style="endArrow=none;html=1;" parent="136" edge="1">
                    <mxGeometry x="560" y="360" width="50" height="50" as="geometry">
                        <mxPoint y="20" as="sourcePoint"/>
                        <mxPoint x="20" as="targetPoint"/>
                    </mxGeometry>
                </mxCell>
                <mxCell id="138" value="" style="endArrow=none;html=1;" parent="136" edge="1">
                    <mxGeometry x="560" y="360" width="50" height="50" as="geometry">
                        <mxPoint x="20" y="20" as="sourcePoint"/>
                        <mxPoint as="targetPoint"/>
                    </mxGeometry>
                </mxCell>
                <mxCell id="139" value="" style="group;rotation=35;" parent="132" vertex="1" connectable="0">
                    <mxGeometry x="69" y="137" width="20" height="20" as="geometry"/>
                </mxCell>
                <mxCell id="140" value="" style="endArrow=none;html=1;" parent="139" edge="1">
                    <mxGeometry x="241" y="622" width="50" height="50" as="geometry">
                        <mxPoint x="-4" y="12" as="sourcePoint"/>
                        <mxPoint x="24" y="8" as="targetPoint"/>
                    </mxGeometry>
                </mxCell>
                <mxCell id="141" value="" style="endArrow=none;html=1;" parent="139" edge="1">
                    <mxGeometry x="241" y="622" width="50" height="50" as="geometry">
                        <mxPoint x="12" y="24" as="sourcePoint"/>
                        <mxPoint x="8" y="-4" as="targetPoint"/>
                    </mxGeometry>
                </mxCell>
                <mxCell id="142" value="" style="group;rotation=-30;" parent="132" vertex="1" connectable="0">
                    <mxGeometry x="70" y="90" width="30" height="20" as="geometry"/>
                </mxCell>
                <mxCell id="143" value="" style="endArrow=none;html=1;" parent="142" edge="1">
                    <mxGeometry x="675" y="22" width="50" height="50" as="geometry">
                        <mxPoint x="11" y="24" as="sourcePoint"/>
                        <mxPoint x="19" y="-4" as="targetPoint"/>
                    </mxGeometry>
                </mxCell>
                <mxCell id="144" value="" style="endArrow=none;html=1;" parent="142" edge="1">
                    <mxGeometry x="675" y="22" width="50" height="50" as="geometry">
                        <mxPoint x="29" y="14" as="sourcePoint"/>
                        <mxPoint x="1" y="6" as="targetPoint"/>
                    </mxGeometry>
                </mxCell>
                <mxCell id="145" value="" style="endArrow=none;html=1;" parent="142" edge="1">
                    <mxGeometry width="50" height="50" relative="1" as="geometry">
                        <mxPoint x="2" y="17" as="sourcePoint"/>
                        <mxPoint x="28" y="2" as="targetPoint"/>
                    </mxGeometry>
                </mxCell>
                <mxCell id="146" value="" style="group" parent="132" vertex="1" connectable="0">
                    <mxGeometry x="20" y="220" width="60" height="20" as="geometry"/>
                </mxCell>
                <mxCell id="147" value="" style="endArrow=none;html=1;" parent="146" edge="1">
                    <mxGeometry width="50" height="50" relative="1" as="geometry">
                        <mxPoint as="sourcePoint"/>
                        <mxPoint x="60" as="targetPoint"/>
                    </mxGeometry>
                </mxCell>
                <mxCell id="148" value="" style="endArrow=none;html=1;" parent="146" edge="1">
                    <mxGeometry width="50" height="50" relative="1" as="geometry">
                        <mxPoint x="20.000000000000114" y="19.999999999999886" as="sourcePoint"/>
                        <mxPoint x="40" y="20" as="targetPoint"/>
                    </mxGeometry>
                </mxCell>
                <mxCell id="149" value="" style="endArrow=none;html=1;" parent="146" edge="1">
                    <mxGeometry width="50" height="50" relative="1" as="geometry">
                        <mxPoint x="10" y="10" as="sourcePoint"/>
                        <mxPoint x="50" y="10" as="targetPoint"/>
                    </mxGeometry>
                </mxCell>
                <mxCell id="151" value="" style="group" parent="1" vertex="1" connectable="0">
                    <mxGeometry x="-1030" y="630" width="815.9903810567666" height="486" as="geometry"/>
                </mxCell>
                <mxCell id="152" value="" style="pointerEvents=1;verticalLabelPosition=bottom;shadow=0;dashed=0;align=center;html=1;verticalAlign=top;shape=mxgraph.electrical.inductors.inductor_3;" parent="151" vertex="1">
                    <mxGeometry x="382" y="236" width="190" height="10" as="geometry"/>
                </mxCell>
                <mxCell id="153" value="" style="pointerEvents=1;verticalLabelPosition=bottom;shadow=0;dashed=0;align=center;html=1;verticalAlign=top;shape=mxgraph.electrical.inductors.inductor_3;" parent="151" vertex="1">
                    <mxGeometry x="573" y="236" width="190" height="10" as="geometry"/>
                </mxCell>
                <mxCell id="154" value="" style="group" parent="151" vertex="1" connectable="0">
                    <mxGeometry x="713" y="246" width="102.99038105676664" height="240" as="geometry"/>
                </mxCell>
                <mxCell id="155" style="edgeStyle=orthogonalEdgeStyle;rounded=0;orthogonalLoop=1;jettySize=auto;html=1;exitX=0.5;exitY=1;exitDx=0;exitDy=0;endArrow=none;endFill=0;" parent="154" source="157" edge="1">
                    <mxGeometry relative="1" as="geometry">
                        <mxPoint x="50" y="220" as="targetPoint"/>
                    </mxGeometry>
                </mxCell>
                <mxCell id="156" style="edgeStyle=orthogonalEdgeStyle;rounded=0;orthogonalLoop=1;jettySize=auto;html=1;exitX=0.5;exitY=0;exitDx=0;exitDy=0;endArrow=none;endFill=0;" parent="154" source="157" edge="1">
                    <mxGeometry relative="1" as="geometry">
                        <mxPoint x="50" as="targetPoint"/>
                    </mxGeometry>
                </mxCell>
                <mxCell id="157" value="" style="ellipse;whiteSpace=wrap;html=1;aspect=fixed;" parent="154" vertex="1">
                    <mxGeometry x="10" y="80" width="80" height="80" as="geometry"/>
                </mxCell>
                <mxCell id="158" value="" style="group" parent="154" vertex="1" connectable="0">
                    <mxGeometry y="110" width="20" height="20" as="geometry"/>
                </mxCell>
                <mxCell id="159" value="" style="endArrow=none;html=1;" parent="158" edge="1">
                    <mxGeometry x="560" y="360" width="50" height="50" as="geometry">
                        <mxPoint y="20" as="sourcePoint"/>
                        <mxPoint x="20" as="targetPoint"/>
                    </mxGeometry>
                </mxCell>
                <mxCell id="160" value="" style="endArrow=none;html=1;" parent="158" edge="1">
                    <mxGeometry x="560" y="360" width="50" height="50" as="geometry">
                        <mxPoint x="20" y="20" as="sourcePoint"/>
                        <mxPoint as="targetPoint"/>
                    </mxGeometry>
                </mxCell>
                <mxCell id="161" value="" style="group;rotation=35;" parent="154" vertex="1" connectable="0">
                    <mxGeometry x="69" y="137" width="20" height="20" as="geometry"/>
                </mxCell>
                <mxCell id="162" value="" style="endArrow=none;html=1;" parent="161" edge="1">
                    <mxGeometry x="241" y="622" width="50" height="50" as="geometry">
                        <mxPoint x="-4" y="12" as="sourcePoint"/>
                        <mxPoint x="24" y="8" as="targetPoint"/>
                    </mxGeometry>
                </mxCell>
                <mxCell id="163" value="" style="endArrow=none;html=1;" parent="161" edge="1">
                    <mxGeometry x="241" y="622" width="50" height="50" as="geometry">
                        <mxPoint x="12" y="24" as="sourcePoint"/>
                        <mxPoint x="8" y="-4" as="targetPoint"/>
                    </mxGeometry>
                </mxCell>
                <mxCell id="164" value="" style="group;rotation=-30;" parent="154" vertex="1" connectable="0">
                    <mxGeometry x="70" y="90" width="30" height="20" as="geometry"/>
                </mxCell>
                <mxCell id="165" value="" style="endArrow=none;html=1;" parent="164" edge="1">
                    <mxGeometry x="675" y="22" width="50" height="50" as="geometry">
                        <mxPoint x="11" y="24" as="sourcePoint"/>
                        <mxPoint x="19" y="-4" as="targetPoint"/>
                    </mxGeometry>
                </mxCell>
                <mxCell id="166" value="" style="endArrow=none;html=1;" parent="164" edge="1">
                    <mxGeometry x="675" y="22" width="50" height="50" as="geometry">
                        <mxPoint x="29" y="14" as="sourcePoint"/>
                        <mxPoint x="1" y="6" as="targetPoint"/>
                    </mxGeometry>
                </mxCell>
                <mxCell id="167" value="" style="endArrow=none;html=1;" parent="164" edge="1">
                    <mxGeometry width="50" height="50" relative="1" as="geometry">
                        <mxPoint x="2" y="17" as="sourcePoint"/>
                        <mxPoint x="28" y="2" as="targetPoint"/>
                    </mxGeometry>
                </mxCell>
                <mxCell id="168" value="" style="group" parent="154" vertex="1" connectable="0">
                    <mxGeometry x="20" y="220" width="60" height="20" as="geometry"/>
                </mxCell>
                <mxCell id="169" value="" style="endArrow=none;html=1;" parent="168" edge="1">
                    <mxGeometry width="50" height="50" relative="1" as="geometry">
                        <mxPoint as="sourcePoint"/>
                        <mxPoint x="60" as="targetPoint"/>
                    </mxGeometry>
                </mxCell>
                <mxCell id="170" value="" style="endArrow=none;html=1;" parent="168" edge="1">
                    <mxGeometry width="50" height="50" relative="1" as="geometry">
                        <mxPoint x="20.000000000000114" y="19.999999999999886" as="sourcePoint"/>
                        <mxPoint x="40" y="20" as="targetPoint"/>
                    </mxGeometry>
                </mxCell>
                <mxCell id="171" value="" style="endArrow=none;html=1;" parent="168" edge="1">
                    <mxGeometry width="50" height="50" relative="1" as="geometry">
                        <mxPoint x="10" y="10" as="sourcePoint"/>
                        <mxPoint x="50" y="10" as="targetPoint"/>
                    </mxGeometry>
                </mxCell>
                <mxCell id="172" value="" style="pointerEvents=1;verticalLabelPosition=bottom;shadow=0;dashed=0;align=center;html=1;verticalAlign=top;shape=mxgraph.electrical.resistors.resistor_2;rotation=90;" parent="151" vertex="1">
                    <mxGeometry x="482" y="135" width="200" height="20" as="geometry"/>
                </mxCell>
                <mxCell id="173" value="" style="triangle;whiteSpace=wrap;html=1;rotation=-90;" parent="151" vertex="1">
                    <mxGeometry x="559.5" y="-12.5" width="45" height="70" as="geometry"/>
                </mxCell>
                <mxCell id="174" value="" style="pointerEvents=1;verticalLabelPosition=bottom;shadow=0;dashed=0;align=center;html=1;verticalAlign=top;shape=mxgraph.electrical.inductors.inductor_3;" parent="151" vertex="1">
                    <mxGeometry y="236" width="190" height="10" as="geometry"/>
                </mxCell>
                <mxCell id="175" value="" style="pointerEvents=1;verticalLabelPosition=bottom;shadow=0;dashed=0;align=center;html=1;verticalAlign=top;shape=mxgraph.electrical.inductors.inductor_3;" parent="151" vertex="1">
                    <mxGeometry x="191" y="236" width="190" height="10" as="geometry"/>
                </mxCell>
                <mxCell id="176" value="" style="group" parent="151" vertex="1" connectable="0">
                    <mxGeometry x="331" y="246" width="102.99038105676664" height="240" as="geometry"/>
                </mxCell>
                <mxCell id="177" style="edgeStyle=orthogonalEdgeStyle;rounded=0;orthogonalLoop=1;jettySize=auto;html=1;exitX=0.5;exitY=1;exitDx=0;exitDy=0;endArrow=none;endFill=0;" parent="176" source="179" edge="1">
                    <mxGeometry relative="1" as="geometry">
                        <mxPoint x="50" y="220" as="targetPoint"/>
                    </mxGeometry>
                </mxCell>
                <mxCell id="178" style="edgeStyle=orthogonalEdgeStyle;rounded=0;orthogonalLoop=1;jettySize=auto;html=1;exitX=0.5;exitY=0;exitDx=0;exitDy=0;endArrow=none;endFill=0;" parent="176" source="179" edge="1">
                    <mxGeometry relative="1" as="geometry">
                        <mxPoint x="50" as="targetPoint"/>
                    </mxGeometry>
                </mxCell>
                <mxCell id="179" value="" style="ellipse;whiteSpace=wrap;html=1;aspect=fixed;" parent="176" vertex="1">
                    <mxGeometry x="10" y="80" width="80" height="80" as="geometry"/>
                </mxCell>
                <mxCell id="180" value="" style="group" parent="176" vertex="1" connectable="0">
                    <mxGeometry y="110" width="20" height="20" as="geometry"/>
                </mxCell>
                <mxCell id="181" value="" style="endArrow=none;html=1;" parent="180" edge="1">
                    <mxGeometry x="560" y="360" width="50" height="50" as="geometry">
                        <mxPoint y="20" as="sourcePoint"/>
                        <mxPoint x="20" as="targetPoint"/>
                    </mxGeometry>
                </mxCell>
                <mxCell id="182" value="" style="endArrow=none;html=1;" parent="180" edge="1">
                    <mxGeometry x="560" y="360" width="50" height="50" as="geometry">
                        <mxPoint x="20" y="20" as="sourcePoint"/>
                        <mxPoint as="targetPoint"/>
                    </mxGeometry>
                </mxCell>
                <mxCell id="183" value="" style="group;rotation=35;" parent="176" vertex="1" connectable="0">
                    <mxGeometry x="69" y="137" width="20" height="20" as="geometry"/>
                </mxCell>
                <mxCell id="184" value="" style="endArrow=none;html=1;" parent="183" edge="1">
                    <mxGeometry x="241" y="622" width="50" height="50" as="geometry">
                        <mxPoint x="-4" y="12" as="sourcePoint"/>
                        <mxPoint x="24" y="8" as="targetPoint"/>
                    </mxGeometry>
                </mxCell>
                <mxCell id="185" value="" style="endArrow=none;html=1;" parent="183" edge="1">
                    <mxGeometry x="241" y="622" width="50" height="50" as="geometry">
                        <mxPoint x="12" y="24" as="sourcePoint"/>
                        <mxPoint x="8" y="-4" as="targetPoint"/>
                    </mxGeometry>
                </mxCell>
                <mxCell id="186" value="" style="group;rotation=-30;" parent="176" vertex="1" connectable="0">
                    <mxGeometry x="70" y="90" width="30" height="20" as="geometry"/>
                </mxCell>
                <mxCell id="187" value="" style="endArrow=none;html=1;" parent="186" edge="1">
                    <mxGeometry x="675" y="22" width="50" height="50" as="geometry">
                        <mxPoint x="11" y="24" as="sourcePoint"/>
                        <mxPoint x="19" y="-4" as="targetPoint"/>
                    </mxGeometry>
                </mxCell>
                <mxCell id="188" value="" style="endArrow=none;html=1;" parent="186" edge="1">
                    <mxGeometry x="675" y="22" width="50" height="50" as="geometry">
                        <mxPoint x="29" y="14" as="sourcePoint"/>
                        <mxPoint x="1" y="6" as="targetPoint"/>
                    </mxGeometry>
                </mxCell>
                <mxCell id="189" value="" style="endArrow=none;html=1;" parent="186" edge="1">
                    <mxGeometry width="50" height="50" relative="1" as="geometry">
                        <mxPoint x="2" y="17" as="sourcePoint"/>
                        <mxPoint x="28" y="2" as="targetPoint"/>
                    </mxGeometry>
                </mxCell>
                <mxCell id="190" value="" style="group" parent="176" vertex="1" connectable="0">
                    <mxGeometry x="20" y="220" width="60" height="20" as="geometry"/>
                </mxCell>
                <mxCell id="191" value="" style="endArrow=none;html=1;" parent="190" edge="1">
                    <mxGeometry width="50" height="50" relative="1" as="geometry">
                        <mxPoint as="sourcePoint"/>
                        <mxPoint x="60" as="targetPoint"/>
                    </mxGeometry>
                </mxCell>
                <mxCell id="192" value="" style="endArrow=none;html=1;" parent="190" edge="1">
                    <mxGeometry width="50" height="50" relative="1" as="geometry">
                        <mxPoint x="20.000000000000114" y="19.999999999999886" as="sourcePoint"/>
                        <mxPoint x="40" y="20" as="targetPoint"/>
                    </mxGeometry>
                </mxCell>
                <mxCell id="193" value="" style="endArrow=none;html=1;" parent="190" edge="1">
                    <mxGeometry width="50" height="50" relative="1" as="geometry">
                        <mxPoint x="10" y="10" as="sourcePoint"/>
                        <mxPoint x="50" y="10" as="targetPoint"/>
                    </mxGeometry>
                </mxCell>
                <mxCell id="194" value="" style="group" parent="1" vertex="1" connectable="0">
                    <mxGeometry x="770" y="752.5" width="815.9903810567666" height="486" as="geometry"/>
                </mxCell>
                <mxCell id="195" value="" style="pointerEvents=1;verticalLabelPosition=bottom;shadow=0;dashed=0;align=center;html=1;verticalAlign=top;shape=mxgraph.electrical.inductors.inductor_3;" parent="194" vertex="1">
                    <mxGeometry x="382" y="236" width="190" height="10" as="geometry"/>
                </mxCell>
                <mxCell id="196" value="" style="pointerEvents=1;verticalLabelPosition=bottom;shadow=0;dashed=0;align=center;html=1;verticalAlign=top;shape=mxgraph.electrical.inductors.inductor_3;" parent="194" vertex="1">
                    <mxGeometry x="573" y="236" width="190" height="10" as="geometry"/>
                </mxCell>
                <mxCell id="197" value="" style="group" parent="194" vertex="1" connectable="0">
                    <mxGeometry x="713" y="246" width="102.99038105676664" height="240" as="geometry"/>
                </mxCell>
                <mxCell id="198" style="edgeStyle=orthogonalEdgeStyle;rounded=0;orthogonalLoop=1;jettySize=auto;html=1;exitX=0.5;exitY=1;exitDx=0;exitDy=0;endArrow=none;endFill=0;" parent="197" source="200" edge="1">
                    <mxGeometry relative="1" as="geometry">
                        <mxPoint x="50" y="220" as="targetPoint"/>
                    </mxGeometry>
                </mxCell>
                <mxCell id="199" style="edgeStyle=orthogonalEdgeStyle;rounded=0;orthogonalLoop=1;jettySize=auto;html=1;exitX=0.5;exitY=0;exitDx=0;exitDy=0;endArrow=none;endFill=0;" parent="197" source="200" edge="1">
                    <mxGeometry relative="1" as="geometry">
                        <mxPoint x="50" as="targetPoint"/>
                    </mxGeometry>
                </mxCell>
                <mxCell id="200" value="" style="ellipse;whiteSpace=wrap;html=1;aspect=fixed;" parent="197" vertex="1">
                    <mxGeometry x="10" y="80" width="80" height="80" as="geometry"/>
                </mxCell>
                <mxCell id="201" value="" style="group" parent="197" vertex="1" connectable="0">
                    <mxGeometry y="110" width="20" height="20" as="geometry"/>
                </mxCell>
                <mxCell id="202" value="" style="endArrow=none;html=1;" parent="201" edge="1">
                    <mxGeometry x="560" y="360" width="50" height="50" as="geometry">
                        <mxPoint y="20" as="sourcePoint"/>
                        <mxPoint x="20" as="targetPoint"/>
                    </mxGeometry>
                </mxCell>
                <mxCell id="203" value="" style="endArrow=none;html=1;" parent="201" edge="1">
                    <mxGeometry x="560" y="360" width="50" height="50" as="geometry">
                        <mxPoint x="20" y="20" as="sourcePoint"/>
                        <mxPoint as="targetPoint"/>
                    </mxGeometry>
                </mxCell>
                <mxCell id="204" value="" style="group;rotation=35;" parent="197" vertex="1" connectable="0">
                    <mxGeometry x="69" y="137" width="20" height="20" as="geometry"/>
                </mxCell>
                <mxCell id="205" value="" style="endArrow=none;html=1;" parent="204" edge="1">
                    <mxGeometry x="241" y="622" width="50" height="50" as="geometry">
                        <mxPoint x="-4" y="12" as="sourcePoint"/>
                        <mxPoint x="24" y="8" as="targetPoint"/>
                    </mxGeometry>
                </mxCell>
                <mxCell id="206" value="" style="endArrow=none;html=1;" parent="204" edge="1">
                    <mxGeometry x="241" y="622" width="50" height="50" as="geometry">
                        <mxPoint x="12" y="24" as="sourcePoint"/>
                        <mxPoint x="8" y="-4" as="targetPoint"/>
                    </mxGeometry>
                </mxCell>
                <mxCell id="207" value="" style="group;rotation=-30;" parent="197" vertex="1" connectable="0">
                    <mxGeometry x="70" y="90" width="30" height="20" as="geometry"/>
                </mxCell>
                <mxCell id="208" value="" style="endArrow=none;html=1;" parent="207" edge="1">
                    <mxGeometry x="675" y="22" width="50" height="50" as="geometry">
                        <mxPoint x="11" y="24" as="sourcePoint"/>
                        <mxPoint x="19" y="-4" as="targetPoint"/>
                    </mxGeometry>
                </mxCell>
                <mxCell id="209" value="" style="endArrow=none;html=1;" parent="207" edge="1">
                    <mxGeometry x="675" y="22" width="50" height="50" as="geometry">
                        <mxPoint x="29" y="14" as="sourcePoint"/>
                        <mxPoint x="1" y="6" as="targetPoint"/>
                    </mxGeometry>
                </mxCell>
                <mxCell id="210" value="" style="endArrow=none;html=1;" parent="207" edge="1">
                    <mxGeometry width="50" height="50" relative="1" as="geometry">
                        <mxPoint x="2" y="17" as="sourcePoint"/>
                        <mxPoint x="28" y="2" as="targetPoint"/>
                    </mxGeometry>
                </mxCell>
                <mxCell id="211" value="" style="group" parent="197" vertex="1" connectable="0">
                    <mxGeometry x="20" y="220" width="60" height="20" as="geometry"/>
                </mxCell>
                <mxCell id="212" value="" style="endArrow=none;html=1;" parent="211" edge="1">
                    <mxGeometry width="50" height="50" relative="1" as="geometry">
                        <mxPoint as="sourcePoint"/>
                        <mxPoint x="60" as="targetPoint"/>
                    </mxGeometry>
                </mxCell>
                <mxCell id="213" value="" style="endArrow=none;html=1;" parent="211" edge="1">
                    <mxGeometry width="50" height="50" relative="1" as="geometry">
                        <mxPoint x="20.000000000000114" y="19.999999999999886" as="sourcePoint"/>
                        <mxPoint x="40" y="20" as="targetPoint"/>
                    </mxGeometry>
                </mxCell>
                <mxCell id="214" value="" style="endArrow=none;html=1;" parent="211" edge="1">
                    <mxGeometry width="50" height="50" relative="1" as="geometry">
                        <mxPoint x="10" y="10" as="sourcePoint"/>
                        <mxPoint x="50" y="10" as="targetPoint"/>
                    </mxGeometry>
                </mxCell>
                <mxCell id="215" value="" style="pointerEvents=1;verticalLabelPosition=bottom;shadow=0;dashed=0;align=center;html=1;verticalAlign=top;shape=mxgraph.electrical.resistors.resistor_2;rotation=90;" parent="194" vertex="1">
                    <mxGeometry x="482" y="135" width="200" height="20" as="geometry"/>
                </mxCell>
                <mxCell id="216" value="" style="triangle;whiteSpace=wrap;html=1;rotation=-90;" parent="194" vertex="1">
                    <mxGeometry x="559.5" y="-12.5" width="45" height="70" as="geometry"/>
                </mxCell>
                <mxCell id="217" value="" style="pointerEvents=1;verticalLabelPosition=bottom;shadow=0;dashed=0;align=center;html=1;verticalAlign=top;shape=mxgraph.electrical.inductors.inductor_3;" parent="194" vertex="1">
                    <mxGeometry y="236" width="190" height="10" as="geometry"/>
                </mxCell>
                <mxCell id="218" value="" style="pointerEvents=1;verticalLabelPosition=bottom;shadow=0;dashed=0;align=center;html=1;verticalAlign=top;shape=mxgraph.electrical.inductors.inductor_3;" parent="194" vertex="1">
                    <mxGeometry x="191" y="236" width="190" height="10" as="geometry"/>
                </mxCell>
                <mxCell id="219" value="" style="group" parent="194" vertex="1" connectable="0">
                    <mxGeometry x="331" y="246" width="102.99038105676664" height="240" as="geometry"/>
                </mxCell>
                <mxCell id="220" style="edgeStyle=orthogonalEdgeStyle;rounded=0;orthogonalLoop=1;jettySize=auto;html=1;exitX=0.5;exitY=1;exitDx=0;exitDy=0;endArrow=none;endFill=0;" parent="219" source="222" edge="1">
                    <mxGeometry relative="1" as="geometry">
                        <mxPoint x="50" y="220" as="targetPoint"/>
                    </mxGeometry>
                </mxCell>
                <mxCell id="221" style="edgeStyle=orthogonalEdgeStyle;rounded=0;orthogonalLoop=1;jettySize=auto;html=1;exitX=0.5;exitY=0;exitDx=0;exitDy=0;endArrow=none;endFill=0;" parent="219" source="222" edge="1">
                    <mxGeometry relative="1" as="geometry">
                        <mxPoint x="50" as="targetPoint"/>
                    </mxGeometry>
                </mxCell>
                <mxCell id="222" value="" style="ellipse;whiteSpace=wrap;html=1;aspect=fixed;" parent="219" vertex="1">
                    <mxGeometry x="10" y="80" width="80" height="80" as="geometry"/>
                </mxCell>
                <mxCell id="223" value="" style="group" parent="219" vertex="1" connectable="0">
                    <mxGeometry y="110" width="20" height="20" as="geometry"/>
                </mxCell>
                <mxCell id="224" value="" style="endArrow=none;html=1;" parent="223" edge="1">
                    <mxGeometry x="560" y="360" width="50" height="50" as="geometry">
                        <mxPoint y="20" as="sourcePoint"/>
                        <mxPoint x="20" as="targetPoint"/>
                    </mxGeometry>
                </mxCell>
                <mxCell id="225" value="" style="endArrow=none;html=1;" parent="223" edge="1">
                    <mxGeometry x="560" y="360" width="50" height="50" as="geometry">
                        <mxPoint x="20" y="20" as="sourcePoint"/>
                        <mxPoint as="targetPoint"/>
                    </mxGeometry>
                </mxCell>
                <mxCell id="226" value="" style="group;rotation=35;" parent="219" vertex="1" connectable="0">
                    <mxGeometry x="69" y="137" width="20" height="20" as="geometry"/>
                </mxCell>
                <mxCell id="227" value="" style="endArrow=none;html=1;" parent="226" edge="1">
                    <mxGeometry x="241" y="622" width="50" height="50" as="geometry">
                        <mxPoint x="-4" y="12" as="sourcePoint"/>
                        <mxPoint x="24" y="8" as="targetPoint"/>
                    </mxGeometry>
                </mxCell>
                <mxCell id="228" value="" style="endArrow=none;html=1;" parent="226" edge="1">
                    <mxGeometry x="241" y="622" width="50" height="50" as="geometry">
                        <mxPoint x="12" y="24" as="sourcePoint"/>
                        <mxPoint x="8" y="-4" as="targetPoint"/>
                    </mxGeometry>
                </mxCell>
                <mxCell id="229" value="" style="group;rotation=-30;" parent="219" vertex="1" connectable="0">
                    <mxGeometry x="70" y="90" width="30" height="20" as="geometry"/>
                </mxCell>
                <mxCell id="230" value="" style="endArrow=none;html=1;" parent="229" edge="1">
                    <mxGeometry x="675" y="22" width="50" height="50" as="geometry">
                        <mxPoint x="11" y="24" as="sourcePoint"/>
                        <mxPoint x="19" y="-4" as="targetPoint"/>
                    </mxGeometry>
                </mxCell>
                <mxCell id="231" value="" style="endArrow=none;html=1;" parent="229" edge="1">
                    <mxGeometry x="675" y="22" width="50" height="50" as="geometry">
                        <mxPoint x="29" y="14" as="sourcePoint"/>
                        <mxPoint x="1" y="6" as="targetPoint"/>
                    </mxGeometry>
                </mxCell>
                <mxCell id="232" value="" style="endArrow=none;html=1;" parent="229" edge="1">
                    <mxGeometry width="50" height="50" relative="1" as="geometry">
                        <mxPoint x="2" y="17" as="sourcePoint"/>
                        <mxPoint x="28" y="2" as="targetPoint"/>
                    </mxGeometry>
                </mxCell>
                <mxCell id="233" value="" style="group" parent="219" vertex="1" connectable="0">
                    <mxGeometry x="20" y="220" width="60" height="20" as="geometry"/>
                </mxCell>
                <mxCell id="234" value="" style="endArrow=none;html=1;" parent="233" edge="1">
                    <mxGeometry width="50" height="50" relative="1" as="geometry">
                        <mxPoint as="sourcePoint"/>
                        <mxPoint x="60" as="targetPoint"/>
                    </mxGeometry>
                </mxCell>
                <mxCell id="235" value="" style="endArrow=none;html=1;" parent="233" edge="1">
                    <mxGeometry width="50" height="50" relative="1" as="geometry">
                        <mxPoint x="20.000000000000114" y="19.999999999999886" as="sourcePoint"/>
                        <mxPoint x="40" y="20" as="targetPoint"/>
                    </mxGeometry>
                </mxCell>
                <mxCell id="236" value="" style="endArrow=none;html=1;" parent="233" edge="1">
                    <mxGeometry width="50" height="50" relative="1" as="geometry">
                        <mxPoint x="10" y="10" as="sourcePoint"/>
                        <mxPoint x="50" y="10" as="targetPoint"/>
                    </mxGeometry>
                </mxCell>
                <mxCell id="237" value="" style="group;rotation=0;" parent="1" vertex="1" connectable="0">
                    <mxGeometry x="630" y="1530" width="102.99038105676664" height="240" as="geometry"/>
                </mxCell>
                <mxCell id="238" style="edgeStyle=orthogonalEdgeStyle;rounded=0;orthogonalLoop=1;jettySize=auto;html=1;exitX=0.5;exitY=1;exitDx=0;exitDy=0;endArrow=none;endFill=0;" parent="237" source="240" edge="1">
                    <mxGeometry as="geometry">
                        <mxPoint x="50" y="240" as="targetPoint"/>
                    </mxGeometry>
                </mxCell>
                <mxCell id="239" style="edgeStyle=orthogonalEdgeStyle;rounded=0;orthogonalLoop=1;jettySize=auto;html=1;exitX=0.5;exitY=0;exitDx=0;exitDy=0;endArrow=none;endFill=0;" parent="237" source="240" edge="1">
                    <mxGeometry as="geometry">
                        <mxPoint x="50" y="-10" as="targetPoint"/>
                    </mxGeometry>
                </mxCell>
                <mxCell id="240" value="" style="ellipse;whiteSpace=wrap;html=1;aspect=fixed;rotation=0;" parent="237" vertex="1">
                    <mxGeometry x="10" y="80" width="80" height="80" as="geometry"/>
                </mxCell>
                <mxCell id="241" value="" style="group;rotation=0;" parent="237" vertex="1" connectable="0">
                    <mxGeometry y="110" width="20" height="20" as="geometry"/>
                </mxCell>
                <mxCell id="242" value="" style="endArrow=none;html=1;" parent="241" edge="1">
                    <mxGeometry x="560" y="360" width="50" height="50" as="geometry">
                        <mxPoint y="20" as="sourcePoint"/>
                        <mxPoint x="20" as="targetPoint"/>
                    </mxGeometry>
                </mxCell>
                <mxCell id="243" value="" style="endArrow=none;html=1;" parent="241" edge="1">
                    <mxGeometry x="560" y="360" width="50" height="50" as="geometry">
                        <mxPoint x="20" y="20" as="sourcePoint"/>
                        <mxPoint as="targetPoint"/>
                    </mxGeometry>
                </mxCell>
                <mxCell id="244" value="" style="group;rotation=35;" parent="237" vertex="1" connectable="0">
                    <mxGeometry x="69" y="137" width="20" height="20" as="geometry"/>
                </mxCell>
                <mxCell id="245" value="" style="endArrow=none;html=1;" parent="244" edge="1">
                    <mxGeometry x="241" y="622" width="50" height="50" as="geometry">
                        <mxPoint x="-4" y="12" as="sourcePoint"/>
                        <mxPoint x="24" y="8" as="targetPoint"/>
                    </mxGeometry>
                </mxCell>
                <mxCell id="246" value="" style="endArrow=none;html=1;" parent="244" edge="1">
                    <mxGeometry x="241" y="622" width="50" height="50" as="geometry">
                        <mxPoint x="12" y="24" as="sourcePoint"/>
                        <mxPoint x="8" y="-4" as="targetPoint"/>
                    </mxGeometry>
                </mxCell>
                <mxCell id="247" value="" style="group;rotation=-30;" parent="237" vertex="1" connectable="0">
                    <mxGeometry x="70" y="90" width="30" height="20" as="geometry"/>
                </mxCell>
                <mxCell id="248" value="" style="endArrow=none;html=1;" parent="247" edge="1">
                    <mxGeometry x="675" y="22" width="50" height="50" as="geometry">
                        <mxPoint x="11" y="24" as="sourcePoint"/>
                        <mxPoint x="19" y="-4" as="targetPoint"/>
                    </mxGeometry>
                </mxCell>
                <mxCell id="249" value="" style="endArrow=none;html=1;" parent="247" edge="1">
                    <mxGeometry x="675" y="22" width="50" height="50" as="geometry">
                        <mxPoint x="29" y="14" as="sourcePoint"/>
                        <mxPoint x="1" y="6" as="targetPoint"/>
                    </mxGeometry>
                </mxCell>
                <mxCell id="250" value="" style="endArrow=none;html=1;" parent="247" edge="1">
                    <mxGeometry width="50" height="50" relative="1" as="geometry">
                        <mxPoint x="2" y="17" as="sourcePoint"/>
                        <mxPoint x="28" y="2" as="targetPoint"/>
                    </mxGeometry>
                </mxCell>
                <mxCell id="251" value="" style="pointerEvents=1;verticalLabelPosition=bottom;shadow=0;dashed=0;align=center;html=1;verticalAlign=top;shape=mxgraph.electrical.inductors.inductor_3;rotation=90;" parent="1" vertex="1">
                    <mxGeometry x="590" y="1858" width="190" height="10" as="geometry"/>
                </mxCell>
                <mxCell id="295" value="" style="pointerEvents=1;verticalLabelPosition=bottom;shadow=0;dashed=0;align=center;html=1;verticalAlign=top;shape=mxgraph.electrical.inductors.inductor_3;" parent="1" vertex="1">
                    <mxGeometry x="680" y="1949" width="190" height="10" as="geometry"/>
                </mxCell>
                <mxCell id="255" value="" style="group" parent="1" vertex="1" connectable="0">
                    <mxGeometry x="821" y="1959" width="102.99038105676664" height="240" as="geometry"/>
                </mxCell>
                <mxCell id="256" style="edgeStyle=orthogonalEdgeStyle;rounded=0;orthogonalLoop=1;jettySize=auto;html=1;exitX=0.5;exitY=1;exitDx=0;exitDy=0;endArrow=none;endFill=0;" parent="255" source="258" edge="1">
                    <mxGeometry relative="1" as="geometry">
                        <mxPoint x="50" y="220" as="targetPoint"/>
                    </mxGeometry>
                </mxCell>
                <mxCell id="257" style="edgeStyle=orthogonalEdgeStyle;rounded=0;orthogonalLoop=1;jettySize=auto;html=1;exitX=0.5;exitY=0;exitDx=0;exitDy=0;endArrow=none;endFill=0;" parent="255" source="258" edge="1">
                    <mxGeometry relative="1" as="geometry">
                        <mxPoint x="50" as="targetPoint"/>
                    </mxGeometry>
                </mxCell>
                <mxCell id="258" value="" style="ellipse;whiteSpace=wrap;html=1;aspect=fixed;" parent="255" vertex="1">
                    <mxGeometry x="10" y="80" width="80" height="80" as="geometry"/>
                </mxCell>
                <mxCell id="259" value="" style="group" parent="255" vertex="1" connectable="0">
                    <mxGeometry y="110" width="20" height="20" as="geometry"/>
                </mxCell>
                <mxCell id="260" value="" style="endArrow=none;html=1;" parent="259" edge="1">
                    <mxGeometry x="560" y="360" width="50" height="50" as="geometry">
                        <mxPoint y="20" as="sourcePoint"/>
                        <mxPoint x="20" as="targetPoint"/>
                    </mxGeometry>
                </mxCell>
                <mxCell id="261" value="" style="endArrow=none;html=1;" parent="259" edge="1">
                    <mxGeometry x="560" y="360" width="50" height="50" as="geometry">
                        <mxPoint x="20" y="20" as="sourcePoint"/>
                        <mxPoint as="targetPoint"/>
                    </mxGeometry>
                </mxCell>
                <mxCell id="262" value="" style="group;rotation=35;" parent="255" vertex="1" connectable="0">
                    <mxGeometry x="69" y="137" width="20" height="20" as="geometry"/>
                </mxCell>
                <mxCell id="263" value="" style="endArrow=none;html=1;" parent="262" edge="1">
                    <mxGeometry x="241" y="622" width="50" height="50" as="geometry">
                        <mxPoint x="-4" y="12" as="sourcePoint"/>
                        <mxPoint x="24" y="8" as="targetPoint"/>
                    </mxGeometry>
                </mxCell>
                <mxCell id="264" value="" style="endArrow=none;html=1;" parent="262" edge="1">
                    <mxGeometry x="241" y="622" width="50" height="50" as="geometry">
                        <mxPoint x="12" y="24" as="sourcePoint"/>
                        <mxPoint x="8" y="-4" as="targetPoint"/>
                    </mxGeometry>
                </mxCell>
                <mxCell id="265" value="" style="group;rotation=-30;" parent="255" vertex="1" connectable="0">
                    <mxGeometry x="70" y="90" width="30" height="20" as="geometry"/>
                </mxCell>
                <mxCell id="266" value="" style="endArrow=none;html=1;" parent="265" edge="1">
                    <mxGeometry x="675" y="22" width="50" height="50" as="geometry">
                        <mxPoint x="11" y="24" as="sourcePoint"/>
                        <mxPoint x="19" y="-4" as="targetPoint"/>
                    </mxGeometry>
                </mxCell>
                <mxCell id="267" value="" style="endArrow=none;html=1;" parent="265" edge="1">
                    <mxGeometry x="675" y="22" width="50" height="50" as="geometry">
                        <mxPoint x="29" y="14" as="sourcePoint"/>
                        <mxPoint x="1" y="6" as="targetPoint"/>
                    </mxGeometry>
                </mxCell>
                <mxCell id="268" value="" style="endArrow=none;html=1;" parent="265" edge="1">
                    <mxGeometry width="50" height="50" relative="1" as="geometry">
                        <mxPoint x="2" y="17" as="sourcePoint"/>
                        <mxPoint x="28" y="2" as="targetPoint"/>
                    </mxGeometry>
                </mxCell>
                <mxCell id="269" value="" style="group" parent="255" vertex="1" connectable="0">
                    <mxGeometry x="20" y="220" width="60" height="20" as="geometry"/>
                </mxCell>
                <mxCell id="270" value="" style="endArrow=none;html=1;" parent="269" edge="1">
                    <mxGeometry width="50" height="50" relative="1" as="geometry">
                        <mxPoint as="sourcePoint"/>
                        <mxPoint x="60" as="targetPoint"/>
                    </mxGeometry>
                </mxCell>
                <mxCell id="271" value="" style="endArrow=none;html=1;" parent="269" edge="1">
                    <mxGeometry width="50" height="50" relative="1" as="geometry">
                        <mxPoint x="20.000000000000114" y="19.999999999999886" as="sourcePoint"/>
                        <mxPoint x="40" y="20" as="targetPoint"/>
                    </mxGeometry>
                </mxCell>
                <mxCell id="272" value="" style="endArrow=none;html=1;" parent="269" edge="1">
                    <mxGeometry width="50" height="50" relative="1" as="geometry">
                        <mxPoint x="10" y="10" as="sourcePoint"/>
                        <mxPoint x="50" y="10" as="targetPoint"/>
                    </mxGeometry>
                </mxCell>
                <mxCell id="296" value="" style="group" parent="1" vertex="1" connectable="0">
                    <mxGeometry x="-81" y="1713.57" width="763" height="485.9999999999998" as="geometry"/>
                </mxCell>
                <mxCell id="253" value="" style="pointerEvents=1;verticalLabelPosition=bottom;shadow=0;dashed=0;align=center;html=1;verticalAlign=top;shape=mxgraph.electrical.inductors.inductor_3;" parent="296" vertex="1">
                    <mxGeometry x="382" y="236" width="190" height="10" as="geometry"/>
                </mxCell>
                <mxCell id="254" value="" style="pointerEvents=1;verticalLabelPosition=bottom;shadow=0;dashed=0;align=center;html=1;verticalAlign=top;shape=mxgraph.electrical.inductors.inductor_3;" parent="296" vertex="1">
                    <mxGeometry x="573" y="236" width="190" height="10" as="geometry"/>
                </mxCell>
                <mxCell id="273" value="" style="pointerEvents=1;verticalLabelPosition=bottom;shadow=0;dashed=0;align=center;html=1;verticalAlign=top;shape=mxgraph.electrical.resistors.resistor_2;rotation=90;" parent="296" vertex="1">
                    <mxGeometry x="482" y="135" width="200" height="20" as="geometry"/>
                </mxCell>
                <mxCell id="274" value="" style="triangle;whiteSpace=wrap;html=1;rotation=-90;" parent="296" vertex="1">
                    <mxGeometry x="559.5" y="-12.5" width="45" height="70" as="geometry"/>
                </mxCell>
                <mxCell id="275" value="" style="pointerEvents=1;verticalLabelPosition=bottom;shadow=0;dashed=0;align=center;html=1;verticalAlign=top;shape=mxgraph.electrical.inductors.inductor_3;" parent="296" vertex="1">
                    <mxGeometry y="236" width="190" height="10" as="geometry"/>
                </mxCell>
                <mxCell id="276" value="" style="pointerEvents=1;verticalLabelPosition=bottom;shadow=0;dashed=0;align=center;html=1;verticalAlign=top;shape=mxgraph.electrical.inductors.inductor_3;" parent="296" vertex="1">
                    <mxGeometry x="191" y="236" width="190" height="10" as="geometry"/>
                </mxCell>
                <mxCell id="277" value="" style="group" parent="296" vertex="1" connectable="0">
                    <mxGeometry x="331" y="246" width="102.99038105676664" height="240" as="geometry"/>
                </mxCell>
                <mxCell id="278" style="edgeStyle=orthogonalEdgeStyle;rounded=0;orthogonalLoop=1;jettySize=auto;html=1;exitX=0.5;exitY=1;exitDx=0;exitDy=0;endArrow=none;endFill=0;" parent="277" source="280" edge="1">
                    <mxGeometry relative="1" as="geometry">
                        <mxPoint x="50" y="220" as="targetPoint"/>
                    </mxGeometry>
                </mxCell>
                <mxCell id="279" style="edgeStyle=orthogonalEdgeStyle;rounded=0;orthogonalLoop=1;jettySize=auto;html=1;exitX=0.5;exitY=0;exitDx=0;exitDy=0;endArrow=none;endFill=0;" parent="277" source="280" edge="1">
                    <mxGeometry relative="1" as="geometry">
                        <mxPoint x="50" as="targetPoint"/>
                    </mxGeometry>
                </mxCell>
                <mxCell id="280" value="" style="ellipse;whiteSpace=wrap;html=1;aspect=fixed;" parent="277" vertex="1">
                    <mxGeometry x="10" y="80" width="80" height="80" as="geometry"/>
                </mxCell>
                <mxCell id="281" value="" style="group" parent="277" vertex="1" connectable="0">
                    <mxGeometry y="110" width="20" height="20" as="geometry"/>
                </mxCell>
                <mxCell id="282" value="" style="endArrow=none;html=1;" parent="281" edge="1">
                    <mxGeometry x="560" y="360" width="50" height="50" as="geometry">
                        <mxPoint y="20" as="sourcePoint"/>
                        <mxPoint x="20" as="targetPoint"/>
                    </mxGeometry>
                </mxCell>
                <mxCell id="283" value="" style="endArrow=none;html=1;" parent="281" edge="1">
                    <mxGeometry x="560" y="360" width="50" height="50" as="geometry">
                        <mxPoint x="20" y="20" as="sourcePoint"/>
                        <mxPoint as="targetPoint"/>
                    </mxGeometry>
                </mxCell>
                <mxCell id="284" value="" style="group;rotation=35;" parent="277" vertex="1" connectable="0">
                    <mxGeometry x="69" y="137" width="20" height="20" as="geometry"/>
                </mxCell>
                <mxCell id="285" value="" style="endArrow=none;html=1;" parent="284" edge="1">
                    <mxGeometry x="241" y="622" width="50" height="50" as="geometry">
                        <mxPoint x="-4" y="12" as="sourcePoint"/>
                        <mxPoint x="24" y="8" as="targetPoint"/>
                    </mxGeometry>
                </mxCell>
                <mxCell id="286" value="" style="endArrow=none;html=1;" parent="284" edge="1">
                    <mxGeometry x="241" y="622" width="50" height="50" as="geometry">
                        <mxPoint x="12" y="24" as="sourcePoint"/>
                        <mxPoint x="8" y="-4" as="targetPoint"/>
                    </mxGeometry>
                </mxCell>
                <mxCell id="287" value="" style="group;rotation=-30;" parent="277" vertex="1" connectable="0">
                    <mxGeometry x="70" y="90" width="30" height="20" as="geometry"/>
                </mxCell>
                <mxCell id="288" value="" style="endArrow=none;html=1;" parent="287" edge="1">
                    <mxGeometry x="675" y="22" width="50" height="50" as="geometry">
                        <mxPoint x="11" y="24" as="sourcePoint"/>
                        <mxPoint x="19" y="-4" as="targetPoint"/>
                    </mxGeometry>
                </mxCell>
                <mxCell id="289" value="" style="endArrow=none;html=1;" parent="287" edge="1">
                    <mxGeometry x="675" y="22" width="50" height="50" as="geometry">
                        <mxPoint x="29" y="14" as="sourcePoint"/>
                        <mxPoint x="1" y="6" as="targetPoint"/>
                    </mxGeometry>
                </mxCell>
                <mxCell id="290" value="" style="endArrow=none;html=1;" parent="287" edge="1">
                    <mxGeometry width="50" height="50" relative="1" as="geometry">
                        <mxPoint x="2" y="17" as="sourcePoint"/>
                        <mxPoint x="28" y="2" as="targetPoint"/>
                    </mxGeometry>
                </mxCell>
                <mxCell id="291" value="" style="group" parent="277" vertex="1" connectable="0">
                    <mxGeometry x="20" y="220" width="60" height="20" as="geometry"/>
                </mxCell>
                <mxCell id="292" value="" style="endArrow=none;html=1;" parent="291" edge="1">
                    <mxGeometry width="50" height="50" relative="1" as="geometry">
                        <mxPoint as="sourcePoint"/>
                        <mxPoint x="60" as="targetPoint"/>
                    </mxGeometry>
                </mxCell>
                <mxCell id="293" value="" style="endArrow=none;html=1;" parent="291" edge="1">
                    <mxGeometry width="50" height="50" relative="1" as="geometry">
                        <mxPoint x="20.000000000000114" y="19.999999999999886" as="sourcePoint"/>
                        <mxPoint x="40" y="20" as="targetPoint"/>
                    </mxGeometry>
                </mxCell>
                <mxCell id="294" value="" style="endArrow=none;html=1;" parent="291" edge="1">
                    <mxGeometry width="50" height="50" relative="1" as="geometry">
                        <mxPoint x="10" y="10" as="sourcePoint"/>
                        <mxPoint x="50" y="10" as="targetPoint"/>
                    </mxGeometry>
                </mxCell>
                <mxCell id="297" value="" style="pointerEvents=1;verticalLabelPosition=bottom;shadow=0;dashed=0;align=center;html=1;verticalAlign=top;shape=mxgraph.electrical.inductors.inductor_3;" parent="1" vertex="1">
                    <mxGeometry x="490" y="1510" width="190" height="10" as="geometry"/>
                </mxCell>
                <mxCell id="298" value="" style="group" vertex="1" connectable="0" parent="1">
                    <mxGeometry x="-1440" y="1550" width="102.99038105676664" height="240" as="geometry"/>
                </mxCell>
                <mxCell id="299" style="edgeStyle=orthogonalEdgeStyle;rounded=0;orthogonalLoop=1;jettySize=auto;html=1;exitX=0.5;exitY=1;exitDx=0;exitDy=0;endArrow=none;endFill=0;" edge="1" parent="298" source="301">
                    <mxGeometry relative="1" as="geometry">
                        <mxPoint x="50" y="220" as="targetPoint"/>
                    </mxGeometry>
                </mxCell>
                <mxCell id="300" style="edgeStyle=orthogonalEdgeStyle;rounded=0;orthogonalLoop=1;jettySize=auto;html=1;exitX=0.5;exitY=0;exitDx=0;exitDy=0;endArrow=none;endFill=0;" edge="1" parent="298" source="301">
                    <mxGeometry relative="1" as="geometry">
                        <mxPoint x="50" as="targetPoint"/>
                    </mxGeometry>
                </mxCell>
                <mxCell id="301" value="" style="ellipse;whiteSpace=wrap;html=1;aspect=fixed;" vertex="1" parent="298">
                    <mxGeometry x="10" y="80" width="80" height="80" as="geometry"/>
                </mxCell>
                <mxCell id="302" value="" style="group" vertex="1" connectable="0" parent="298">
                    <mxGeometry y="110" width="20" height="20" as="geometry"/>
                </mxCell>
                <mxCell id="303" value="" style="endArrow=none;html=1;" edge="1" parent="302">
                    <mxGeometry x="560" y="360" width="50" height="50" as="geometry">
                        <mxPoint y="20" as="sourcePoint"/>
                        <mxPoint x="20" as="targetPoint"/>
                    </mxGeometry>
                </mxCell>
                <mxCell id="304" value="" style="endArrow=none;html=1;" edge="1" parent="302">
                    <mxGeometry x="560" y="360" width="50" height="50" as="geometry">
                        <mxPoint x="20" y="20" as="sourcePoint"/>
                        <mxPoint as="targetPoint"/>
                    </mxGeometry>
                </mxCell>
                <mxCell id="305" value="" style="group;rotation=35;" vertex="1" connectable="0" parent="298">
                    <mxGeometry x="69" y="137" width="20" height="20" as="geometry"/>
                </mxCell>
                <mxCell id="306" value="" style="endArrow=none;html=1;" edge="1" parent="305">
                    <mxGeometry x="241" y="622" width="50" height="50" as="geometry">
                        <mxPoint x="-4" y="12" as="sourcePoint"/>
                        <mxPoint x="24" y="8" as="targetPoint"/>
                    </mxGeometry>
                </mxCell>
                <mxCell id="307" value="" style="endArrow=none;html=1;" edge="1" parent="305">
                    <mxGeometry x="241" y="622" width="50" height="50" as="geometry">
                        <mxPoint x="12" y="24" as="sourcePoint"/>
                        <mxPoint x="8" y="-4" as="targetPoint"/>
                    </mxGeometry>
                </mxCell>
                <mxCell id="308" value="" style="group;rotation=-30;" vertex="1" connectable="0" parent="298">
                    <mxGeometry x="70" y="90" width="30" height="20" as="geometry"/>
                </mxCell>
                <mxCell id="309" value="" style="endArrow=none;html=1;" edge="1" parent="308">
                    <mxGeometry x="675" y="22" width="50" height="50" as="geometry">
                        <mxPoint x="11" y="24" as="sourcePoint"/>
                        <mxPoint x="19" y="-4" as="targetPoint"/>
                    </mxGeometry>
                </mxCell>
                <mxCell id="310" value="" style="endArrow=none;html=1;" edge="1" parent="308">
                    <mxGeometry x="675" y="22" width="50" height="50" as="geometry">
                        <mxPoint x="29" y="14" as="sourcePoint"/>
                        <mxPoint x="1" y="6" as="targetPoint"/>
                    </mxGeometry>
                </mxCell>
                <mxCell id="311" value="" style="endArrow=none;html=1;" edge="1" parent="308">
                    <mxGeometry width="50" height="50" relative="1" as="geometry">
                        <mxPoint x="2" y="17" as="sourcePoint"/>
                        <mxPoint x="28" y="2" as="targetPoint"/>
                    </mxGeometry>
                </mxCell>
                <mxCell id="312" value="" style="group" vertex="1" connectable="0" parent="298">
                    <mxGeometry x="20" y="220" width="60" height="20" as="geometry"/>
                </mxCell>
                <mxCell id="313" value="" style="endArrow=none;html=1;" edge="1" parent="312">
                    <mxGeometry width="50" height="50" relative="1" as="geometry">
                        <mxPoint as="sourcePoint"/>
                        <mxPoint x="60" as="targetPoint"/>
                    </mxGeometry>
                </mxCell>
                <mxCell id="314" value="" style="endArrow=none;html=1;" edge="1" parent="312">
                    <mxGeometry width="50" height="50" relative="1" as="geometry">
                        <mxPoint x="20.000000000000114" y="19.999999999999886" as="sourcePoint"/>
                        <mxPoint x="40" y="20" as="targetPoint"/>
                    </mxGeometry>
                </mxCell>
                <mxCell id="315" value="" style="endArrow=none;html=1;" edge="1" parent="312">
                    <mxGeometry width="50" height="50" relative="1" as="geometry">
                        <mxPoint x="10" y="10" as="sourcePoint"/>
                        <mxPoint x="50" y="10" as="targetPoint"/>
                    </mxGeometry>
                </mxCell>
                <mxCell id="320" style="edgeStyle=orthogonalEdgeStyle;rounded=0;orthogonalLoop=1;jettySize=auto;html=1;exitX=0.5;exitY=1;exitDx=0;exitDy=0;endArrow=none;endFill=0;" edge="1" parent="1" source="322">
                    <mxGeometry x="-1200" y="1570" as="geometry">
                        <mxPoint x="-1150" y="1790" as="targetPoint"/>
                    </mxGeometry>
                </mxCell>
                <mxCell id="321" style="edgeStyle=orthogonalEdgeStyle;rounded=0;orthogonalLoop=1;jettySize=auto;html=1;exitX=0.5;exitY=0;exitDx=0;exitDy=0;endArrow=none;endFill=0;" edge="1" parent="1" source="322">
                    <mxGeometry x="-1200" y="1570" as="geometry">
                        <mxPoint x="-1150" y="1570" as="targetPoint"/>
                    </mxGeometry>
                </mxCell>
                <mxCell id="322" value="" style="ellipse;whiteSpace=wrap;html=1;aspect=fixed;" vertex="1" parent="1">
                    <mxGeometry x="-1190" y="1650" width="80" height="80" as="geometry"/>
                </mxCell>
                <mxCell id="326" value="" style="group;rotation=35;" vertex="1" connectable="0" parent="1">
                    <mxGeometry x="-1131" y="1707" width="20" height="20" as="geometry"/>
                </mxCell>
                <mxCell id="327" value="" style="endArrow=none;html=1;" edge="1" parent="326">
                    <mxGeometry x="241" y="622" width="50" height="50" as="geometry">
                        <mxPoint x="-4" y="12" as="sourcePoint"/>
                        <mxPoint x="24" y="8" as="targetPoint"/>
                    </mxGeometry>
                </mxCell>
                <mxCell id="328" value="" style="endArrow=none;html=1;" edge="1" parent="326">
                    <mxGeometry x="241" y="622" width="50" height="50" as="geometry">
                        <mxPoint x="12" y="24" as="sourcePoint"/>
                        <mxPoint x="8" y="-4" as="targetPoint"/>
                    </mxGeometry>
                </mxCell>
                <mxCell id="329" value="" style="group;rotation=-30;" vertex="1" connectable="0" parent="1">
                    <mxGeometry x="-1130" y="1660" width="30" height="20" as="geometry"/>
                </mxCell>
                <mxCell id="330" value="" style="endArrow=none;html=1;" edge="1" parent="329">
                    <mxGeometry x="675" y="22" width="50" height="50" as="geometry">
                        <mxPoint x="11" y="24" as="sourcePoint"/>
                        <mxPoint x="19" y="-4" as="targetPoint"/>
                    </mxGeometry>
                </mxCell>
                <mxCell id="331" value="" style="endArrow=none;html=1;" edge="1" parent="329">
                    <mxGeometry x="675" y="22" width="50" height="50" as="geometry">
                        <mxPoint x="29" y="14" as="sourcePoint"/>
                        <mxPoint x="1" y="6" as="targetPoint"/>
                    </mxGeometry>
                </mxCell>
                <mxCell id="332" value="" style="endArrow=none;html=1;" edge="1" parent="329">
                    <mxGeometry width="50" height="50" relative="1" as="geometry">
                        <mxPoint x="2" y="17" as="sourcePoint"/>
                        <mxPoint x="28" y="2" as="targetPoint"/>
                    </mxGeometry>
                </mxCell>
                <mxCell id="333" value="" style="group" vertex="1" connectable="0" parent="1">
                    <mxGeometry x="-1180" y="1790" width="60" height="20" as="geometry"/>
                </mxCell>
                <mxCell id="334" value="" style="endArrow=none;html=1;" edge="1" parent="333">
                    <mxGeometry width="50" height="50" relative="1" as="geometry">
                        <mxPoint as="sourcePoint"/>
                        <mxPoint x="60" as="targetPoint"/>
                    </mxGeometry>
                </mxCell>
                <mxCell id="335" value="" style="endArrow=none;html=1;" edge="1" parent="333">
                    <mxGeometry width="50" height="50" relative="1" as="geometry">
                        <mxPoint x="20.000000000000114" y="19.999999999999886" as="sourcePoint"/>
                        <mxPoint x="40" y="20" as="targetPoint"/>
                    </mxGeometry>
                </mxCell>
                <mxCell id="336" value="" style="endArrow=none;html=1;" edge="1" parent="333">
                    <mxGeometry width="50" height="50" relative="1" as="geometry">
                        <mxPoint x="10" y="10" as="sourcePoint"/>
                        <mxPoint x="50" y="10" as="targetPoint"/>
                    </mxGeometry>
                </mxCell>
                <mxCell id="348" value="" style="group" vertex="1" connectable="0" parent="1">
                    <mxGeometry x="-525" y="1674" width="90" height="70" as="geometry"/>
                </mxCell>
                <mxCell id="344" value="" style="endArrow=none;html=1;" edge="1" parent="348">
                    <mxGeometry x="1970" y="1260" width="175" height="175" as="geometry">
                        <mxPoint x="10" y="70" as="sourcePoint"/>
                        <mxPoint x="80" as="targetPoint"/>
                    </mxGeometry>
                </mxCell>
                <mxCell id="345" value="" style="endArrow=none;html=1;" edge="1" parent="348">
                    <mxGeometry x="1970" y="1260" width="175" height="175" as="geometry">
                        <mxPoint x="80" y="70" as="sourcePoint"/>
                        <mxPoint x="10" as="targetPoint"/>
                    </mxGeometry>
                </mxCell>
                <mxCell id="346" value="" style="endArrow=none;html=1;" edge="1" parent="348">
                    <mxGeometry x="-550" y="1710" width="50" height="50" as="geometry">
                        <mxPoint y="34.76" as="sourcePoint"/>
                        <mxPoint x="90" y="34.76" as="targetPoint"/>
                    </mxGeometry>
                </mxCell>
                <mxCell id="350" value="" style="pointerEvents=1;verticalLabelPosition=bottom;shadow=0;dashed=0;align=center;html=1;verticalAlign=top;shape=mxgraph.electrical.inductors.inductor_3;" vertex="1" parent="1">
                    <mxGeometry x="-860" y="1600" width="190" height="10" as="geometry"/>
                </mxCell>
                <mxCell id="351" value="" style="pointerEvents=1;verticalLabelPosition=bottom;shadow=0;dashed=0;align=center;html=1;verticalAlign=top;shape=mxgraph.electrical.inductors.inductor_3;" vertex="1" parent="1">
                    <mxGeometry x="-670" y="1600" width="190" height="10" as="geometry"/>
                </mxCell>
                <mxCell id="352" value="" style="endArrow=none;html=1;exitX=1;exitY=1;exitDx=0;exitDy=0;exitPerimeter=0;entryX=0;entryY=1;entryDx=0;entryDy=0;entryPerimeter=0;rounded=0;" edge="1" parent="1" source="351" target="350">
                    <mxGeometry width="50" height="50" relative="1" as="geometry">
                        <mxPoint x="-370" y="1620" as="sourcePoint"/>
                        <mxPoint x="-820" y="1680" as="targetPoint"/>
                        <Array as="points">
                            <mxPoint x="-480" y="1800"/>
                            <mxPoint x="-670" y="1800"/>
                            <mxPoint x="-860" y="1800"/>
                        </Array>
                    </mxGeometry>
                </mxCell>
                <mxCell id="356" value="" style="endArrow=none;html=1;exitX=1;exitY=1;exitDx=0;exitDy=0;exitPerimeter=0;" edge="1" parent="1" source="350">
                    <mxGeometry width="50" height="50" relative="1" as="geometry">
                        <mxPoint x="-770" y="1580" as="sourcePoint"/>
                        <mxPoint x="-670" y="1530" as="targetPoint"/>
                    </mxGeometry>
                </mxCell>
                <mxCell id="358" value="" style="endArrow=none;html=1;" edge="1" parent="1">
                    <mxGeometry x="1064" y="2933" width="175" height="175" as="geometry">
                        <mxPoint x="-896" y="1743" as="sourcePoint"/>
                        <mxPoint x="-826" y="1673" as="targetPoint"/>
                    </mxGeometry>
                </mxCell>
                <mxCell id="359" value="" style="endArrow=none;html=1;" edge="1" parent="1">
                    <mxGeometry x="1064" y="2933" width="175" height="175" as="geometry">
                        <mxPoint x="-826" y="1743" as="sourcePoint"/>
                        <mxPoint x="-896" y="1673" as="targetPoint"/>
                    </mxGeometry>
                </mxCell>
                <mxCell id="362" value="" style="endArrow=none;html=1;" edge="1" parent="1">
                    <mxGeometry width="50" height="50" relative="1" as="geometry">
                        <mxPoint x="-670" y="1870" as="sourcePoint"/>
                        <mxPoint x="-670" y="1800" as="targetPoint"/>
                    </mxGeometry>
                </mxCell>
                <mxCell id="369" value="" style="group" vertex="1" connectable="0" parent="1">
                    <mxGeometry x="-750" y="1713.57" width="60" height="60" as="geometry"/>
                </mxCell>
                <mxCell id="363" value="" style="ellipse;whiteSpace=wrap;html=1;aspect=fixed;" vertex="1" parent="369">
                    <mxGeometry width="60" height="60" as="geometry"/>
                </mxCell>
                <mxCell id="366" value="" style="endArrow=none;html=1;exitX=0;exitY=1;exitDx=0;exitDy=0;entryX=1;entryY=0;entryDx=0;entryDy=0;" edge="1" parent="369" source="363" target="363">
                    <mxGeometry width="50" height="50" relative="1" as="geometry">
                        <mxPoint x="10" y="56" as="sourcePoint"/>
                        <mxPoint x="60" y="6" as="targetPoint"/>
                    </mxGeometry>
                </mxCell>
                <mxCell id="368" value="" style="endArrow=none;html=1;entryX=0;entryY=0;entryDx=0;entryDy=0;exitX=1;exitY=1;exitDx=0;exitDy=0;" edge="1" parent="369" source="363" target="363">
                    <mxGeometry width="50" height="50" relative="1" as="geometry">
                        <mxPoint x="60" y="36" as="sourcePoint"/>
                        <mxPoint x="110" y="-14" as="targetPoint"/>
                    </mxGeometry>
                </mxCell>
                <mxCell id="373" value="&lt;span style=&quot;font-family: &amp;#34;cambria math&amp;#34;&quot;&gt;&lt;font style=&quot;font-size: 37px&quot;&gt;Φ&lt;/font&gt;&lt;/span&gt;&lt;span style=&quot;font-size: 20pt ; font-family: &amp;#34;cambria math&amp;#34;&quot;&gt;ex&lt;/span&gt;" style="text;html=1;strokeColor=none;fillColor=none;align=center;verticalAlign=middle;whiteSpace=wrap;rounded=0;" vertex="1" parent="1">
                    <mxGeometry x="-690" y="1720" width="80" height="70" as="geometry"/>
                </mxCell>
                <mxCell id="374" value="" style="group" vertex="1" connectable="0" parent="1">
                    <mxGeometry x="-869" y="2230" width="90" height="70" as="geometry"/>
                </mxCell>
                <mxCell id="375" value="" style="endArrow=none;html=1;" edge="1" parent="374">
                    <mxGeometry x="1970" y="1260" width="175" height="175" as="geometry">
                        <mxPoint x="10" y="70" as="sourcePoint"/>
                        <mxPoint x="80" as="targetPoint"/>
                    </mxGeometry>
                </mxCell>
                <mxCell id="376" value="" style="endArrow=none;html=1;" edge="1" parent="374">
                    <mxGeometry x="1970" y="1260" width="175" height="175" as="geometry">
                        <mxPoint x="80" y="70" as="sourcePoint"/>
                        <mxPoint x="10" as="targetPoint"/>
                    </mxGeometry>
                </mxCell>
                <mxCell id="377" value="" style="endArrow=none;html=1;" edge="1" parent="374">
                    <mxGeometry x="-550" y="1710" width="50" height="50" as="geometry">
                        <mxPoint y="34.76" as="sourcePoint"/>
                        <mxPoint x="90" y="34.76" as="targetPoint"/>
                    </mxGeometry>
                </mxCell>
                <mxCell id="378" value="" style="pointerEvents=1;verticalLabelPosition=bottom;shadow=0;dashed=0;align=center;html=1;verticalAlign=top;shape=mxgraph.electrical.inductors.inductor_3;" vertex="1" parent="1">
                    <mxGeometry x="-1204" y="2210" width="190" height="10" as="geometry"/>
                </mxCell>
                <mxCell id="379" value="" style="pointerEvents=1;verticalLabelPosition=bottom;shadow=0;dashed=0;align=center;html=1;verticalAlign=top;shape=mxgraph.electrical.inductors.inductor_3;" vertex="1" parent="1">
                    <mxGeometry x="-1014" y="2210" width="190" height="10" as="geometry"/>
                </mxCell>
                <mxCell id="380" value="" style="endArrow=none;html=1;exitX=1;exitY=1;exitDx=0;exitDy=0;exitPerimeter=0;entryX=0;entryY=1;entryDx=0;entryDy=0;entryPerimeter=0;rounded=0;" edge="1" source="379" target="378" parent="1">
                    <mxGeometry width="50" height="50" relative="1" as="geometry">
                        <mxPoint x="-714" y="2230" as="sourcePoint"/>
                        <mxPoint x="-1164" y="2290" as="targetPoint"/>
                        <Array as="points">
                            <mxPoint x="-824" y="2410"/>
                            <mxPoint x="-1014" y="2410"/>
                            <mxPoint x="-1204" y="2410"/>
                        </Array>
                    </mxGeometry>
                </mxCell>
                <mxCell id="381" value="" style="endArrow=none;html=1;exitX=1;exitY=1;exitDx=0;exitDy=0;exitPerimeter=0;" edge="1" source="378" parent="1">
                    <mxGeometry width="50" height="50" relative="1" as="geometry">
                        <mxPoint x="-1114" y="2190" as="sourcePoint"/>
                        <mxPoint x="-1014" y="2140" as="targetPoint"/>
                    </mxGeometry>
                </mxCell>
                <mxCell id="384" value="" style="endArrow=none;html=1;" edge="1" parent="1">
                    <mxGeometry width="50" height="50" relative="1" as="geometry">
                        <mxPoint x="-1014" y="2480" as="sourcePoint"/>
                        <mxPoint x="-1014" y="2410" as="targetPoint"/>
                    </mxGeometry>
                </mxCell>
                <mxCell id="385" value="" style="group" vertex="1" connectable="0" parent="1">
                    <mxGeometry x="-1094" y="2323.5699999999997" width="60" height="60" as="geometry"/>
                </mxCell>
                <mxCell id="386" value="" style="ellipse;whiteSpace=wrap;html=1;aspect=fixed;" vertex="1" parent="385">
                    <mxGeometry width="60" height="60" as="geometry"/>
                </mxCell>
                <mxCell id="387" value="" style="endArrow=none;html=1;exitX=0;exitY=1;exitDx=0;exitDy=0;entryX=1;entryY=0;entryDx=0;entryDy=0;" edge="1" parent="385" source="386" target="386">
                    <mxGeometry width="50" height="50" relative="1" as="geometry">
                        <mxPoint x="10" y="56" as="sourcePoint"/>
                        <mxPoint x="60" y="6" as="targetPoint"/>
                    </mxGeometry>
                </mxCell>
                <mxCell id="388" value="" style="endArrow=none;html=1;entryX=0;entryY=0;entryDx=0;entryDy=0;exitX=1;exitY=1;exitDx=0;exitDy=0;" edge="1" parent="385" source="386" target="386">
                    <mxGeometry width="50" height="50" relative="1" as="geometry">
                        <mxPoint x="60" y="36" as="sourcePoint"/>
                        <mxPoint x="110" y="-14" as="targetPoint"/>
                    </mxGeometry>
                </mxCell>
                <mxCell id="389" value="&lt;span style=&quot;font-family: &amp;#34;cambria math&amp;#34;&quot;&gt;&lt;font style=&quot;font-size: 37px&quot;&gt;Φ&lt;/font&gt;&lt;/span&gt;&lt;span style=&quot;font-size: 20pt ; font-family: &amp;#34;cambria math&amp;#34;&quot;&gt;ex&lt;/span&gt;" style="text;html=1;strokeColor=none;fillColor=none;align=center;verticalAlign=middle;whiteSpace=wrap;rounded=0;" vertex="1" parent="1">
                    <mxGeometry x="-1034" y="2330" width="80" height="70" as="geometry"/>
                </mxCell>
                <mxCell id="390" value="" style="group" vertex="1" connectable="0" parent="1">
                    <mxGeometry x="-859" y="2330" width="70" height="70" as="geometry"/>
                </mxCell>
                <mxCell id="382" value="" style="endArrow=none;html=1;" edge="1" parent="390">
                    <mxGeometry x="1960" y="1260" width="175" height="175" as="geometry">
                        <mxPoint y="70" as="sourcePoint"/>
                        <mxPoint x="70" as="targetPoint"/>
                    </mxGeometry>
                </mxCell>
                <mxCell id="383" value="" style="endArrow=none;html=1;" edge="1" parent="390">
                    <mxGeometry x="1960" y="1260" width="175" height="175" as="geometry">
                        <mxPoint x="70" y="70" as="sourcePoint"/>
                        <mxPoint as="targetPoint"/>
                    </mxGeometry>
                </mxCell>
                <mxCell id="391" value="" style="group" vertex="1" connectable="0" parent="1">
                    <mxGeometry x="-1239" y="2280" width="70" height="70" as="geometry"/>
                </mxCell>
                <mxCell id="392" value="" style="endArrow=none;html=1;" edge="1" parent="391">
                    <mxGeometry x="1960" y="1260" width="175" height="175" as="geometry">
                        <mxPoint y="70" as="sourcePoint"/>
                        <mxPoint x="70" as="targetPoint"/>
                    </mxGeometry>
                </mxCell>
                <mxCell id="393" value="" style="endArrow=none;html=1;" edge="1" parent="391">
                    <mxGeometry x="1960" y="1260" width="175" height="175" as="geometry">
                        <mxPoint x="70" y="70" as="sourcePoint"/>
                        <mxPoint as="targetPoint"/>
                    </mxGeometry>
                </mxCell>
            </root>
        </mxGraphModel>
    </diagram>
</mxfile>